G04 (created by PCBNEW (2013-04-28 BZR 4117)-testing) date Mon 29 Apr 2013 06:53:22 PM CEST*
%MOIN*%
G04 Gerber Fmt 3.4, Leading zero omitted, Abs format*
%FSLAX34Y34*%
G01*
G70*
G90*
G04 APERTURE LIST*
%ADD10C,2.3622e-06*%
%ADD11R,0.059X0.0511*%
%ADD12R,0.0216X0.0472*%
%ADD13R,0.0709X0.0709*%
%ADD14C,0.0709*%
%ADD15C,0.03*%
%ADD16C,0.008*%
%ADD17C,0.02*%
G04 APERTURE END LIST*
G54D10*
G54D11*
X28650Y-20674D03*
X28650Y-19926D03*
X31150Y-20674D03*
X31150Y-19926D03*
G54D12*
X29526Y-20811D03*
X29900Y-20811D03*
X30274Y-20811D03*
X30274Y-19789D03*
X29900Y-19789D03*
X29526Y-19789D03*
G54D13*
X28900Y-21800D03*
G54D14*
X29900Y-21800D03*
X30900Y-21800D03*
X30900Y-18800D03*
X29900Y-18800D03*
X28900Y-18800D03*
G54D13*
X25000Y-21800D03*
G54D14*
X26000Y-21800D03*
X27000Y-21800D03*
X27000Y-18800D03*
X26000Y-18800D03*
X25000Y-18800D03*
G54D12*
X25626Y-20811D03*
X26000Y-20811D03*
X26374Y-20811D03*
X26374Y-19789D03*
X26000Y-19789D03*
X25626Y-19789D03*
G54D11*
X27250Y-20674D03*
X27250Y-19926D03*
X24750Y-20674D03*
X24750Y-19926D03*
X16950Y-20674D03*
X16950Y-19926D03*
X19450Y-20674D03*
X19450Y-19926D03*
G54D12*
X17826Y-20811D03*
X18200Y-20811D03*
X18574Y-20811D03*
X18574Y-19789D03*
X18200Y-19789D03*
X17826Y-19789D03*
G54D13*
X17200Y-21800D03*
G54D14*
X18200Y-21800D03*
X19200Y-21800D03*
X19200Y-18800D03*
X18200Y-18800D03*
X17200Y-18800D03*
G54D13*
X21100Y-21800D03*
G54D14*
X22100Y-21800D03*
X23100Y-21800D03*
X23100Y-18800D03*
X22100Y-18800D03*
X21100Y-18800D03*
G54D12*
X21726Y-20811D03*
X22100Y-20811D03*
X22474Y-20811D03*
X22474Y-19789D03*
X22100Y-19789D03*
X21726Y-19789D03*
G54D11*
X23350Y-20674D03*
X23350Y-19926D03*
X20850Y-20674D03*
X20850Y-19926D03*
G54D13*
X32800Y-21800D03*
G54D14*
X33800Y-21800D03*
X34800Y-21800D03*
X34800Y-18800D03*
X33800Y-18800D03*
X32800Y-18800D03*
G54D12*
X33426Y-20811D03*
X33800Y-20811D03*
X34174Y-20811D03*
X34174Y-19789D03*
X33800Y-19789D03*
X33426Y-19789D03*
G54D11*
X35050Y-20674D03*
X35050Y-19926D03*
X32550Y-20674D03*
X32550Y-19926D03*
X32550Y-15774D03*
X32550Y-15026D03*
X35050Y-15774D03*
X35050Y-15026D03*
G54D12*
X33426Y-15911D03*
X33800Y-15911D03*
X34174Y-15911D03*
X34174Y-14889D03*
X33800Y-14889D03*
X33426Y-14889D03*
G54D13*
X32800Y-16900D03*
G54D14*
X33800Y-16900D03*
X34800Y-16900D03*
X34800Y-13900D03*
X33800Y-13900D03*
X32800Y-13900D03*
G54D11*
X20850Y-15774D03*
X20850Y-15026D03*
X23350Y-15774D03*
X23350Y-15026D03*
G54D12*
X21726Y-15911D03*
X22100Y-15911D03*
X22474Y-15911D03*
X22474Y-14889D03*
X22100Y-14889D03*
X21726Y-14889D03*
G54D13*
X21100Y-16900D03*
G54D14*
X22100Y-16900D03*
X23100Y-16900D03*
X23100Y-13900D03*
X22100Y-13900D03*
X21100Y-13900D03*
G54D13*
X17200Y-16900D03*
G54D14*
X18200Y-16900D03*
X19200Y-16900D03*
X19200Y-13900D03*
X18200Y-13900D03*
X17200Y-13900D03*
G54D12*
X17826Y-15911D03*
X18200Y-15911D03*
X18574Y-15911D03*
X18574Y-14889D03*
X18200Y-14889D03*
X17826Y-14889D03*
G54D11*
X19450Y-15774D03*
X19450Y-15026D03*
X16950Y-15774D03*
X16950Y-15026D03*
X24750Y-15774D03*
X24750Y-15026D03*
X27250Y-15774D03*
X27250Y-15026D03*
G54D12*
X25626Y-15911D03*
X26000Y-15911D03*
X26374Y-15911D03*
X26374Y-14889D03*
X26000Y-14889D03*
X25626Y-14889D03*
G54D13*
X25000Y-16900D03*
G54D14*
X26000Y-16900D03*
X27000Y-16900D03*
X27000Y-13900D03*
X26000Y-13900D03*
X25000Y-13900D03*
G54D13*
X28900Y-16900D03*
G54D14*
X29900Y-16900D03*
X30900Y-16900D03*
X30900Y-13900D03*
X29900Y-13900D03*
X28900Y-13900D03*
G54D12*
X29526Y-15911D03*
X29900Y-15911D03*
X30274Y-15911D03*
X30274Y-14889D03*
X29900Y-14889D03*
X29526Y-14889D03*
G54D11*
X31150Y-15774D03*
X31150Y-15026D03*
X28650Y-15774D03*
X28650Y-15026D03*
X28650Y-25574D03*
X28650Y-24826D03*
X31150Y-25574D03*
X31150Y-24826D03*
G54D12*
X29526Y-25711D03*
X29900Y-25711D03*
X30274Y-25711D03*
X30274Y-24689D03*
X29900Y-24689D03*
X29526Y-24689D03*
G54D13*
X28900Y-26700D03*
G54D14*
X29900Y-26700D03*
X30900Y-26700D03*
X30900Y-23700D03*
X29900Y-23700D03*
X28900Y-23700D03*
G54D13*
X25000Y-26700D03*
G54D14*
X26000Y-26700D03*
X27000Y-26700D03*
X27000Y-23700D03*
X26000Y-23700D03*
X25000Y-23700D03*
G54D12*
X25626Y-25711D03*
X26000Y-25711D03*
X26374Y-25711D03*
X26374Y-24689D03*
X26000Y-24689D03*
X25626Y-24689D03*
G54D11*
X27250Y-25574D03*
X27250Y-24826D03*
X24750Y-25574D03*
X24750Y-24826D03*
X16950Y-25574D03*
X16950Y-24826D03*
X19450Y-25574D03*
X19450Y-24826D03*
G54D12*
X17826Y-25711D03*
X18200Y-25711D03*
X18574Y-25711D03*
X18574Y-24689D03*
X18200Y-24689D03*
X17826Y-24689D03*
G54D13*
X17200Y-26700D03*
G54D14*
X18200Y-26700D03*
X19200Y-26700D03*
X19200Y-23700D03*
X18200Y-23700D03*
X17200Y-23700D03*
G54D13*
X21100Y-26700D03*
G54D14*
X22100Y-26700D03*
X23100Y-26700D03*
X23100Y-23700D03*
X22100Y-23700D03*
X21100Y-23700D03*
G54D12*
X21726Y-25711D03*
X22100Y-25711D03*
X22474Y-25711D03*
X22474Y-24689D03*
X22100Y-24689D03*
X21726Y-24689D03*
G54D11*
X23350Y-25574D03*
X23350Y-24826D03*
X20850Y-25574D03*
X20850Y-24826D03*
G54D13*
X32800Y-26700D03*
G54D14*
X33800Y-26700D03*
X34800Y-26700D03*
X34800Y-23700D03*
X33800Y-23700D03*
X32800Y-23700D03*
G54D12*
X33426Y-25711D03*
X33800Y-25711D03*
X34174Y-25711D03*
X34174Y-24689D03*
X33800Y-24689D03*
X33426Y-24689D03*
G54D11*
X35050Y-25574D03*
X35050Y-24826D03*
X32550Y-25574D03*
X32550Y-24826D03*
X32550Y-30474D03*
X32550Y-29726D03*
X35050Y-30474D03*
X35050Y-29726D03*
G54D12*
X33426Y-30611D03*
X33800Y-30611D03*
X34174Y-30611D03*
X34174Y-29589D03*
X33800Y-29589D03*
X33426Y-29589D03*
G54D13*
X32800Y-31600D03*
G54D14*
X33800Y-31600D03*
X34800Y-31600D03*
X34800Y-28600D03*
X33800Y-28600D03*
X32800Y-28600D03*
G54D11*
X20850Y-30474D03*
X20850Y-29726D03*
X23350Y-30474D03*
X23350Y-29726D03*
G54D12*
X21726Y-30611D03*
X22100Y-30611D03*
X22474Y-30611D03*
X22474Y-29589D03*
X22100Y-29589D03*
X21726Y-29589D03*
G54D13*
X21100Y-31600D03*
G54D14*
X22100Y-31600D03*
X23100Y-31600D03*
X23100Y-28600D03*
X22100Y-28600D03*
X21100Y-28600D03*
G54D13*
X17200Y-31600D03*
G54D14*
X18200Y-31600D03*
X19200Y-31600D03*
X19200Y-28600D03*
X18200Y-28600D03*
X17200Y-28600D03*
G54D12*
X17826Y-30611D03*
X18200Y-30611D03*
X18574Y-30611D03*
X18574Y-29589D03*
X18200Y-29589D03*
X17826Y-29589D03*
G54D11*
X19450Y-30474D03*
X19450Y-29726D03*
X16950Y-30474D03*
X16950Y-29726D03*
X24750Y-30474D03*
X24750Y-29726D03*
X27250Y-30474D03*
X27250Y-29726D03*
G54D12*
X25626Y-30611D03*
X26000Y-30611D03*
X26374Y-30611D03*
X26374Y-29589D03*
X26000Y-29589D03*
X25626Y-29589D03*
G54D13*
X25000Y-31600D03*
G54D14*
X26000Y-31600D03*
X27000Y-31600D03*
X27000Y-28600D03*
X26000Y-28600D03*
X25000Y-28600D03*
G54D13*
X28900Y-31600D03*
G54D14*
X29900Y-31600D03*
X30900Y-31600D03*
X30900Y-28600D03*
X29900Y-28600D03*
X28900Y-28600D03*
G54D12*
X29526Y-30611D03*
X29900Y-30611D03*
X30274Y-30611D03*
X30274Y-29589D03*
X29900Y-29589D03*
X29526Y-29589D03*
G54D11*
X31150Y-30474D03*
X31150Y-29726D03*
X28650Y-30474D03*
X28650Y-29726D03*
G54D15*
X30400Y-22300D03*
X30400Y-18300D03*
X29400Y-18300D03*
X29500Y-22300D03*
X25600Y-22300D03*
X25500Y-18300D03*
X26500Y-18300D03*
X26500Y-22300D03*
X18700Y-22300D03*
X18700Y-18300D03*
X17700Y-18300D03*
X17800Y-22300D03*
X21700Y-22300D03*
X21600Y-18300D03*
X22600Y-18300D03*
X22600Y-22300D03*
X33400Y-22300D03*
X33300Y-18300D03*
X34300Y-18300D03*
X34300Y-22300D03*
X34300Y-17400D03*
X34300Y-13400D03*
X33300Y-13400D03*
X33400Y-17400D03*
X22600Y-17400D03*
X22600Y-13400D03*
X21600Y-13400D03*
X21700Y-17400D03*
X17800Y-17400D03*
X17700Y-13400D03*
X18700Y-13400D03*
X18700Y-17400D03*
X26500Y-17400D03*
X26500Y-13400D03*
X25500Y-13400D03*
X25600Y-17400D03*
X29500Y-17400D03*
X29400Y-13400D03*
X30400Y-13400D03*
X30400Y-17400D03*
X30400Y-27200D03*
X30400Y-23200D03*
X29400Y-23200D03*
X29500Y-27200D03*
X25600Y-27200D03*
X25500Y-23200D03*
X26500Y-23200D03*
X26500Y-27200D03*
X18700Y-27200D03*
X18700Y-23200D03*
X17700Y-23200D03*
X17800Y-27200D03*
X21700Y-27200D03*
X21600Y-23200D03*
X22600Y-23200D03*
X22600Y-27200D03*
X33400Y-27200D03*
X33300Y-23200D03*
X34300Y-23200D03*
X34300Y-27200D03*
X34300Y-32100D03*
X34300Y-28100D03*
X33300Y-28100D03*
X33400Y-32100D03*
X22600Y-32100D03*
X22600Y-28100D03*
X21600Y-28100D03*
X21700Y-32100D03*
X17800Y-32100D03*
X17700Y-28100D03*
X18700Y-28100D03*
X18700Y-32100D03*
X26500Y-32100D03*
X26500Y-28100D03*
X25500Y-28100D03*
X25600Y-32100D03*
X29500Y-32100D03*
X29400Y-28100D03*
X30400Y-28100D03*
X30400Y-32100D03*
G54D16*
X31500Y-22300D02*
X30400Y-22300D01*
X31500Y-21500D02*
X31500Y-22300D01*
X31150Y-21150D02*
X31500Y-21500D01*
X31150Y-20674D02*
X31150Y-21150D01*
X28650Y-19926D02*
X28650Y-19550D01*
G54D17*
X29526Y-19789D02*
X29526Y-19426D01*
G54D16*
X28300Y-18300D02*
X29400Y-18300D01*
X28300Y-19200D02*
X28300Y-18300D01*
X31150Y-19926D02*
X31150Y-19550D01*
X31150Y-19550D02*
X31500Y-19200D01*
X31500Y-19200D02*
X31500Y-18300D01*
X31500Y-18300D02*
X30400Y-18300D01*
G54D17*
X30274Y-20811D02*
X30274Y-21174D01*
X29900Y-20811D02*
X29900Y-21800D01*
G54D16*
X28650Y-21050D02*
X28650Y-21150D01*
X29500Y-22300D02*
X28300Y-22300D01*
X28650Y-21050D02*
X28650Y-20674D01*
X28300Y-21500D02*
X28300Y-22300D01*
X28650Y-21150D02*
X28300Y-21500D01*
X28650Y-19550D02*
X28300Y-19200D01*
G54D17*
X29526Y-19426D02*
X28900Y-18800D01*
X30274Y-19789D02*
X30274Y-19426D01*
X30274Y-19426D02*
X30900Y-18800D01*
X29900Y-19789D02*
X29900Y-18800D01*
X29526Y-20811D02*
X29526Y-21174D01*
G54D16*
X29500Y-22300D02*
X30400Y-22300D01*
G54D17*
X30274Y-21174D02*
X30900Y-21800D01*
X29526Y-21174D02*
X28900Y-21800D01*
G54D16*
X29400Y-18300D02*
X30400Y-18300D01*
X25500Y-18300D02*
X26500Y-18300D01*
G54D17*
X25626Y-21174D02*
X25000Y-21800D01*
X26374Y-21174D02*
X27000Y-21800D01*
G54D16*
X25600Y-22300D02*
X26500Y-22300D01*
G54D17*
X25626Y-20811D02*
X25626Y-21174D01*
X26000Y-19789D02*
X26000Y-18800D01*
X26374Y-19426D02*
X27000Y-18800D01*
X26374Y-19789D02*
X26374Y-19426D01*
X25626Y-19426D02*
X25000Y-18800D01*
G54D16*
X24750Y-19550D02*
X24400Y-19200D01*
X24750Y-21150D02*
X24400Y-21500D01*
X24400Y-21500D02*
X24400Y-22300D01*
X24750Y-21050D02*
X24750Y-20674D01*
X25600Y-22300D02*
X24400Y-22300D01*
X24750Y-21050D02*
X24750Y-21150D01*
G54D17*
X26000Y-20811D02*
X26000Y-21800D01*
X26374Y-20811D02*
X26374Y-21174D01*
G54D16*
X27600Y-18300D02*
X26500Y-18300D01*
X27600Y-19200D02*
X27600Y-18300D01*
X27250Y-19550D02*
X27600Y-19200D01*
X27250Y-19926D02*
X27250Y-19550D01*
X24400Y-19200D02*
X24400Y-18300D01*
X24400Y-18300D02*
X25500Y-18300D01*
G54D17*
X25626Y-19789D02*
X25626Y-19426D01*
G54D16*
X24750Y-19926D02*
X24750Y-19550D01*
X27250Y-20674D02*
X27250Y-21150D01*
X27250Y-21150D02*
X27600Y-21500D01*
X27600Y-21500D02*
X27600Y-22300D01*
X27600Y-22300D02*
X26500Y-22300D01*
X19800Y-22300D02*
X18700Y-22300D01*
X19800Y-21500D02*
X19800Y-22300D01*
X19450Y-21150D02*
X19800Y-21500D01*
X19450Y-20674D02*
X19450Y-21150D01*
X16950Y-19926D02*
X16950Y-19550D01*
G54D17*
X17826Y-19789D02*
X17826Y-19426D01*
G54D16*
X16600Y-18300D02*
X17700Y-18300D01*
X16600Y-19200D02*
X16600Y-18300D01*
X19450Y-19926D02*
X19450Y-19550D01*
X19450Y-19550D02*
X19800Y-19200D01*
X19800Y-19200D02*
X19800Y-18300D01*
X19800Y-18300D02*
X18700Y-18300D01*
G54D17*
X18574Y-20811D02*
X18574Y-21174D01*
X18200Y-20811D02*
X18200Y-21800D01*
G54D16*
X16950Y-21050D02*
X16950Y-21150D01*
X17800Y-22300D02*
X16600Y-22300D01*
X16950Y-21050D02*
X16950Y-20674D01*
X16600Y-21500D02*
X16600Y-22300D01*
X16950Y-21150D02*
X16600Y-21500D01*
X16950Y-19550D02*
X16600Y-19200D01*
G54D17*
X17826Y-19426D02*
X17200Y-18800D01*
X18574Y-19789D02*
X18574Y-19426D01*
X18574Y-19426D02*
X19200Y-18800D01*
X18200Y-19789D02*
X18200Y-18800D01*
X17826Y-20811D02*
X17826Y-21174D01*
G54D16*
X17800Y-22300D02*
X18700Y-22300D01*
G54D17*
X18574Y-21174D02*
X19200Y-21800D01*
X17826Y-21174D02*
X17200Y-21800D01*
G54D16*
X17700Y-18300D02*
X18700Y-18300D01*
X21600Y-18300D02*
X22600Y-18300D01*
G54D17*
X21726Y-21174D02*
X21100Y-21800D01*
X22474Y-21174D02*
X23100Y-21800D01*
G54D16*
X21700Y-22300D02*
X22600Y-22300D01*
G54D17*
X21726Y-20811D02*
X21726Y-21174D01*
X22100Y-19789D02*
X22100Y-18800D01*
X22474Y-19426D02*
X23100Y-18800D01*
X22474Y-19789D02*
X22474Y-19426D01*
X21726Y-19426D02*
X21100Y-18800D01*
G54D16*
X20850Y-19550D02*
X20500Y-19200D01*
X20850Y-21150D02*
X20500Y-21500D01*
X20500Y-21500D02*
X20500Y-22300D01*
X20850Y-21050D02*
X20850Y-20674D01*
X21700Y-22300D02*
X20500Y-22300D01*
X20850Y-21050D02*
X20850Y-21150D01*
G54D17*
X22100Y-20811D02*
X22100Y-21800D01*
X22474Y-20811D02*
X22474Y-21174D01*
G54D16*
X23700Y-18300D02*
X22600Y-18300D01*
X23700Y-19200D02*
X23700Y-18300D01*
X23350Y-19550D02*
X23700Y-19200D01*
X23350Y-19926D02*
X23350Y-19550D01*
X20500Y-19200D02*
X20500Y-18300D01*
X20500Y-18300D02*
X21600Y-18300D01*
G54D17*
X21726Y-19789D02*
X21726Y-19426D01*
G54D16*
X20850Y-19926D02*
X20850Y-19550D01*
X23350Y-20674D02*
X23350Y-21150D01*
X23350Y-21150D02*
X23700Y-21500D01*
X23700Y-21500D02*
X23700Y-22300D01*
X23700Y-22300D02*
X22600Y-22300D01*
X33300Y-18300D02*
X34300Y-18300D01*
G54D17*
X33426Y-21174D02*
X32800Y-21800D01*
X34174Y-21174D02*
X34800Y-21800D01*
G54D16*
X33400Y-22300D02*
X34300Y-22300D01*
G54D17*
X33426Y-20811D02*
X33426Y-21174D01*
X33800Y-19789D02*
X33800Y-18800D01*
X34174Y-19426D02*
X34800Y-18800D01*
X34174Y-19789D02*
X34174Y-19426D01*
X33426Y-19426D02*
X32800Y-18800D01*
G54D16*
X32550Y-19550D02*
X32200Y-19200D01*
X32550Y-21150D02*
X32200Y-21500D01*
X32200Y-21500D02*
X32200Y-22300D01*
X32550Y-21050D02*
X32550Y-20674D01*
X33400Y-22300D02*
X32200Y-22300D01*
X32550Y-21050D02*
X32550Y-21150D01*
G54D17*
X33800Y-20811D02*
X33800Y-21800D01*
X34174Y-20811D02*
X34174Y-21174D01*
G54D16*
X35400Y-18300D02*
X34300Y-18300D01*
X35400Y-19200D02*
X35400Y-18300D01*
X35050Y-19550D02*
X35400Y-19200D01*
X35050Y-19926D02*
X35050Y-19550D01*
X32200Y-19200D02*
X32200Y-18300D01*
X32200Y-18300D02*
X33300Y-18300D01*
G54D17*
X33426Y-19789D02*
X33426Y-19426D01*
G54D16*
X32550Y-19926D02*
X32550Y-19550D01*
X35050Y-20674D02*
X35050Y-21150D01*
X35050Y-21150D02*
X35400Y-21500D01*
X35400Y-21500D02*
X35400Y-22300D01*
X35400Y-22300D02*
X34300Y-22300D01*
X35400Y-17400D02*
X34300Y-17400D01*
X35400Y-16600D02*
X35400Y-17400D01*
X35050Y-16250D02*
X35400Y-16600D01*
X35050Y-15774D02*
X35050Y-16250D01*
X32550Y-15026D02*
X32550Y-14650D01*
G54D17*
X33426Y-14889D02*
X33426Y-14526D01*
G54D16*
X32200Y-13400D02*
X33300Y-13400D01*
X32200Y-14300D02*
X32200Y-13400D01*
X35050Y-15026D02*
X35050Y-14650D01*
X35050Y-14650D02*
X35400Y-14300D01*
X35400Y-14300D02*
X35400Y-13400D01*
X35400Y-13400D02*
X34300Y-13400D01*
G54D17*
X34174Y-15911D02*
X34174Y-16274D01*
X33800Y-15911D02*
X33800Y-16900D01*
G54D16*
X32550Y-16150D02*
X32550Y-16250D01*
X33400Y-17400D02*
X32200Y-17400D01*
X32550Y-16150D02*
X32550Y-15774D01*
X32200Y-16600D02*
X32200Y-17400D01*
X32550Y-16250D02*
X32200Y-16600D01*
X32550Y-14650D02*
X32200Y-14300D01*
G54D17*
X33426Y-14526D02*
X32800Y-13900D01*
X34174Y-14889D02*
X34174Y-14526D01*
X34174Y-14526D02*
X34800Y-13900D01*
X33800Y-14889D02*
X33800Y-13900D01*
X33426Y-15911D02*
X33426Y-16274D01*
G54D16*
X33400Y-17400D02*
X34300Y-17400D01*
G54D17*
X34174Y-16274D02*
X34800Y-16900D01*
X33426Y-16274D02*
X32800Y-16900D01*
G54D16*
X33300Y-13400D02*
X34300Y-13400D01*
X23700Y-17400D02*
X22600Y-17400D01*
X23700Y-16600D02*
X23700Y-17400D01*
X23350Y-16250D02*
X23700Y-16600D01*
X23350Y-15774D02*
X23350Y-16250D01*
X20850Y-15026D02*
X20850Y-14650D01*
G54D17*
X21726Y-14889D02*
X21726Y-14526D01*
G54D16*
X20500Y-13400D02*
X21600Y-13400D01*
X20500Y-14300D02*
X20500Y-13400D01*
X23350Y-15026D02*
X23350Y-14650D01*
X23350Y-14650D02*
X23700Y-14300D01*
X23700Y-14300D02*
X23700Y-13400D01*
X23700Y-13400D02*
X22600Y-13400D01*
G54D17*
X22474Y-15911D02*
X22474Y-16274D01*
X22100Y-15911D02*
X22100Y-16900D01*
G54D16*
X20850Y-16150D02*
X20850Y-16250D01*
X21700Y-17400D02*
X20500Y-17400D01*
X20850Y-16150D02*
X20850Y-15774D01*
X20500Y-16600D02*
X20500Y-17400D01*
X20850Y-16250D02*
X20500Y-16600D01*
X20850Y-14650D02*
X20500Y-14300D01*
G54D17*
X21726Y-14526D02*
X21100Y-13900D01*
X22474Y-14889D02*
X22474Y-14526D01*
X22474Y-14526D02*
X23100Y-13900D01*
X22100Y-14889D02*
X22100Y-13900D01*
X21726Y-15911D02*
X21726Y-16274D01*
G54D16*
X21700Y-17400D02*
X22600Y-17400D01*
G54D17*
X22474Y-16274D02*
X23100Y-16900D01*
X21726Y-16274D02*
X21100Y-16900D01*
G54D16*
X21600Y-13400D02*
X22600Y-13400D01*
X17700Y-13400D02*
X18700Y-13400D01*
G54D17*
X17826Y-16274D02*
X17200Y-16900D01*
X18574Y-16274D02*
X19200Y-16900D01*
G54D16*
X17800Y-17400D02*
X18700Y-17400D01*
G54D17*
X17826Y-15911D02*
X17826Y-16274D01*
X18200Y-14889D02*
X18200Y-13900D01*
X18574Y-14526D02*
X19200Y-13900D01*
X18574Y-14889D02*
X18574Y-14526D01*
X17826Y-14526D02*
X17200Y-13900D01*
G54D16*
X16950Y-14650D02*
X16600Y-14300D01*
X16950Y-16250D02*
X16600Y-16600D01*
X16600Y-16600D02*
X16600Y-17400D01*
X16950Y-16150D02*
X16950Y-15774D01*
X17800Y-17400D02*
X16600Y-17400D01*
X16950Y-16150D02*
X16950Y-16250D01*
G54D17*
X18200Y-15911D02*
X18200Y-16900D01*
X18574Y-15911D02*
X18574Y-16274D01*
G54D16*
X19800Y-13400D02*
X18700Y-13400D01*
X19800Y-14300D02*
X19800Y-13400D01*
X19450Y-14650D02*
X19800Y-14300D01*
X19450Y-15026D02*
X19450Y-14650D01*
X16600Y-14300D02*
X16600Y-13400D01*
X16600Y-13400D02*
X17700Y-13400D01*
G54D17*
X17826Y-14889D02*
X17826Y-14526D01*
G54D16*
X16950Y-15026D02*
X16950Y-14650D01*
X19450Y-15774D02*
X19450Y-16250D01*
X19450Y-16250D02*
X19800Y-16600D01*
X19800Y-16600D02*
X19800Y-17400D01*
X19800Y-17400D02*
X18700Y-17400D01*
X27600Y-17400D02*
X26500Y-17400D01*
X27600Y-16600D02*
X27600Y-17400D01*
X27250Y-16250D02*
X27600Y-16600D01*
X27250Y-15774D02*
X27250Y-16250D01*
X24750Y-15026D02*
X24750Y-14650D01*
G54D17*
X25626Y-14889D02*
X25626Y-14526D01*
G54D16*
X24400Y-13400D02*
X25500Y-13400D01*
X24400Y-14300D02*
X24400Y-13400D01*
X27250Y-15026D02*
X27250Y-14650D01*
X27250Y-14650D02*
X27600Y-14300D01*
X27600Y-14300D02*
X27600Y-13400D01*
X27600Y-13400D02*
X26500Y-13400D01*
G54D17*
X26374Y-15911D02*
X26374Y-16274D01*
X26000Y-15911D02*
X26000Y-16900D01*
G54D16*
X24750Y-16150D02*
X24750Y-16250D01*
X25600Y-17400D02*
X24400Y-17400D01*
X24750Y-16150D02*
X24750Y-15774D01*
X24400Y-16600D02*
X24400Y-17400D01*
X24750Y-16250D02*
X24400Y-16600D01*
X24750Y-14650D02*
X24400Y-14300D01*
G54D17*
X25626Y-14526D02*
X25000Y-13900D01*
X26374Y-14889D02*
X26374Y-14526D01*
X26374Y-14526D02*
X27000Y-13900D01*
X26000Y-14889D02*
X26000Y-13900D01*
X25626Y-15911D02*
X25626Y-16274D01*
G54D16*
X25600Y-17400D02*
X26500Y-17400D01*
G54D17*
X26374Y-16274D02*
X27000Y-16900D01*
X25626Y-16274D02*
X25000Y-16900D01*
G54D16*
X25500Y-13400D02*
X26500Y-13400D01*
X29400Y-13400D02*
X30400Y-13400D01*
G54D17*
X29526Y-16274D02*
X28900Y-16900D01*
X30274Y-16274D02*
X30900Y-16900D01*
G54D16*
X29500Y-17400D02*
X30400Y-17400D01*
G54D17*
X29526Y-15911D02*
X29526Y-16274D01*
X29900Y-14889D02*
X29900Y-13900D01*
X30274Y-14526D02*
X30900Y-13900D01*
X30274Y-14889D02*
X30274Y-14526D01*
X29526Y-14526D02*
X28900Y-13900D01*
G54D16*
X28650Y-14650D02*
X28300Y-14300D01*
X28650Y-16250D02*
X28300Y-16600D01*
X28300Y-16600D02*
X28300Y-17400D01*
X28650Y-16150D02*
X28650Y-15774D01*
X29500Y-17400D02*
X28300Y-17400D01*
X28650Y-16150D02*
X28650Y-16250D01*
G54D17*
X29900Y-15911D02*
X29900Y-16900D01*
X30274Y-15911D02*
X30274Y-16274D01*
G54D16*
X31500Y-13400D02*
X30400Y-13400D01*
X31500Y-14300D02*
X31500Y-13400D01*
X31150Y-14650D02*
X31500Y-14300D01*
X31150Y-15026D02*
X31150Y-14650D01*
X28300Y-14300D02*
X28300Y-13400D01*
X28300Y-13400D02*
X29400Y-13400D01*
G54D17*
X29526Y-14889D02*
X29526Y-14526D01*
G54D16*
X28650Y-15026D02*
X28650Y-14650D01*
X31150Y-15774D02*
X31150Y-16250D01*
X31150Y-16250D02*
X31500Y-16600D01*
X31500Y-16600D02*
X31500Y-17400D01*
X31500Y-17400D02*
X30400Y-17400D01*
X31500Y-27200D02*
X30400Y-27200D01*
X31500Y-26400D02*
X31500Y-27200D01*
X31150Y-26050D02*
X31500Y-26400D01*
X31150Y-25574D02*
X31150Y-26050D01*
X28650Y-24826D02*
X28650Y-24450D01*
G54D17*
X29526Y-24689D02*
X29526Y-24326D01*
G54D16*
X28300Y-23200D02*
X29400Y-23200D01*
X28300Y-24100D02*
X28300Y-23200D01*
X31150Y-24826D02*
X31150Y-24450D01*
X31150Y-24450D02*
X31500Y-24100D01*
X31500Y-24100D02*
X31500Y-23200D01*
X31500Y-23200D02*
X30400Y-23200D01*
G54D17*
X30274Y-25711D02*
X30274Y-26074D01*
X29900Y-25711D02*
X29900Y-26700D01*
G54D16*
X28650Y-25950D02*
X28650Y-26050D01*
X29500Y-27200D02*
X28300Y-27200D01*
X28650Y-25950D02*
X28650Y-25574D01*
X28300Y-26400D02*
X28300Y-27200D01*
X28650Y-26050D02*
X28300Y-26400D01*
X28650Y-24450D02*
X28300Y-24100D01*
G54D17*
X29526Y-24326D02*
X28900Y-23700D01*
X30274Y-24689D02*
X30274Y-24326D01*
X30274Y-24326D02*
X30900Y-23700D01*
X29900Y-24689D02*
X29900Y-23700D01*
X29526Y-25711D02*
X29526Y-26074D01*
G54D16*
X29500Y-27200D02*
X30400Y-27200D01*
G54D17*
X30274Y-26074D02*
X30900Y-26700D01*
X29526Y-26074D02*
X28900Y-26700D01*
G54D16*
X29400Y-23200D02*
X30400Y-23200D01*
X25500Y-23200D02*
X26500Y-23200D01*
G54D17*
X25626Y-26074D02*
X25000Y-26700D01*
X26374Y-26074D02*
X27000Y-26700D01*
G54D16*
X25600Y-27200D02*
X26500Y-27200D01*
G54D17*
X25626Y-25711D02*
X25626Y-26074D01*
X26000Y-24689D02*
X26000Y-23700D01*
X26374Y-24326D02*
X27000Y-23700D01*
X26374Y-24689D02*
X26374Y-24326D01*
X25626Y-24326D02*
X25000Y-23700D01*
G54D16*
X24750Y-24450D02*
X24400Y-24100D01*
X24750Y-26050D02*
X24400Y-26400D01*
X24400Y-26400D02*
X24400Y-27200D01*
X24750Y-25950D02*
X24750Y-25574D01*
X25600Y-27200D02*
X24400Y-27200D01*
X24750Y-25950D02*
X24750Y-26050D01*
G54D17*
X26000Y-25711D02*
X26000Y-26700D01*
X26374Y-25711D02*
X26374Y-26074D01*
G54D16*
X27600Y-23200D02*
X26500Y-23200D01*
X27600Y-24100D02*
X27600Y-23200D01*
X27250Y-24450D02*
X27600Y-24100D01*
X27250Y-24826D02*
X27250Y-24450D01*
X24400Y-24100D02*
X24400Y-23200D01*
X24400Y-23200D02*
X25500Y-23200D01*
G54D17*
X25626Y-24689D02*
X25626Y-24326D01*
G54D16*
X24750Y-24826D02*
X24750Y-24450D01*
X27250Y-25574D02*
X27250Y-26050D01*
X27250Y-26050D02*
X27600Y-26400D01*
X27600Y-26400D02*
X27600Y-27200D01*
X27600Y-27200D02*
X26500Y-27200D01*
X19800Y-27200D02*
X18700Y-27200D01*
X19800Y-26400D02*
X19800Y-27200D01*
X19450Y-26050D02*
X19800Y-26400D01*
X19450Y-25574D02*
X19450Y-26050D01*
X16950Y-24826D02*
X16950Y-24450D01*
G54D17*
X17826Y-24689D02*
X17826Y-24326D01*
G54D16*
X16600Y-23200D02*
X17700Y-23200D01*
X16600Y-24100D02*
X16600Y-23200D01*
X19450Y-24826D02*
X19450Y-24450D01*
X19450Y-24450D02*
X19800Y-24100D01*
X19800Y-24100D02*
X19800Y-23200D01*
X19800Y-23200D02*
X18700Y-23200D01*
G54D17*
X18574Y-25711D02*
X18574Y-26074D01*
X18200Y-25711D02*
X18200Y-26700D01*
G54D16*
X16950Y-25950D02*
X16950Y-26050D01*
X17800Y-27200D02*
X16600Y-27200D01*
X16950Y-25950D02*
X16950Y-25574D01*
X16600Y-26400D02*
X16600Y-27200D01*
X16950Y-26050D02*
X16600Y-26400D01*
X16950Y-24450D02*
X16600Y-24100D01*
G54D17*
X17826Y-24326D02*
X17200Y-23700D01*
X18574Y-24689D02*
X18574Y-24326D01*
X18574Y-24326D02*
X19200Y-23700D01*
X18200Y-24689D02*
X18200Y-23700D01*
X17826Y-25711D02*
X17826Y-26074D01*
G54D16*
X17800Y-27200D02*
X18700Y-27200D01*
G54D17*
X18574Y-26074D02*
X19200Y-26700D01*
X17826Y-26074D02*
X17200Y-26700D01*
G54D16*
X17700Y-23200D02*
X18700Y-23200D01*
X21600Y-23200D02*
X22600Y-23200D01*
G54D17*
X21726Y-26074D02*
X21100Y-26700D01*
X22474Y-26074D02*
X23100Y-26700D01*
G54D16*
X21700Y-27200D02*
X22600Y-27200D01*
G54D17*
X21726Y-25711D02*
X21726Y-26074D01*
X22100Y-24689D02*
X22100Y-23700D01*
X22474Y-24326D02*
X23100Y-23700D01*
X22474Y-24689D02*
X22474Y-24326D01*
X21726Y-24326D02*
X21100Y-23700D01*
G54D16*
X20850Y-24450D02*
X20500Y-24100D01*
X20850Y-26050D02*
X20500Y-26400D01*
X20500Y-26400D02*
X20500Y-27200D01*
X20850Y-25950D02*
X20850Y-25574D01*
X21700Y-27200D02*
X20500Y-27200D01*
X20850Y-25950D02*
X20850Y-26050D01*
G54D17*
X22100Y-25711D02*
X22100Y-26700D01*
X22474Y-25711D02*
X22474Y-26074D01*
G54D16*
X23700Y-23200D02*
X22600Y-23200D01*
X23700Y-24100D02*
X23700Y-23200D01*
X23350Y-24450D02*
X23700Y-24100D01*
X23350Y-24826D02*
X23350Y-24450D01*
X20500Y-24100D02*
X20500Y-23200D01*
X20500Y-23200D02*
X21600Y-23200D01*
G54D17*
X21726Y-24689D02*
X21726Y-24326D01*
G54D16*
X20850Y-24826D02*
X20850Y-24450D01*
X23350Y-25574D02*
X23350Y-26050D01*
X23350Y-26050D02*
X23700Y-26400D01*
X23700Y-26400D02*
X23700Y-27200D01*
X23700Y-27200D02*
X22600Y-27200D01*
X33300Y-23200D02*
X34300Y-23200D01*
G54D17*
X33426Y-26074D02*
X32800Y-26700D01*
X34174Y-26074D02*
X34800Y-26700D01*
G54D16*
X33400Y-27200D02*
X34300Y-27200D01*
G54D17*
X33426Y-25711D02*
X33426Y-26074D01*
X33800Y-24689D02*
X33800Y-23700D01*
X34174Y-24326D02*
X34800Y-23700D01*
X34174Y-24689D02*
X34174Y-24326D01*
X33426Y-24326D02*
X32800Y-23700D01*
G54D16*
X32550Y-24450D02*
X32200Y-24100D01*
X32550Y-26050D02*
X32200Y-26400D01*
X32200Y-26400D02*
X32200Y-27200D01*
X32550Y-25950D02*
X32550Y-25574D01*
X33400Y-27200D02*
X32200Y-27200D01*
X32550Y-25950D02*
X32550Y-26050D01*
G54D17*
X33800Y-25711D02*
X33800Y-26700D01*
X34174Y-25711D02*
X34174Y-26074D01*
G54D16*
X35400Y-23200D02*
X34300Y-23200D01*
X35400Y-24100D02*
X35400Y-23200D01*
X35050Y-24450D02*
X35400Y-24100D01*
X35050Y-24826D02*
X35050Y-24450D01*
X32200Y-24100D02*
X32200Y-23200D01*
X32200Y-23200D02*
X33300Y-23200D01*
G54D17*
X33426Y-24689D02*
X33426Y-24326D01*
G54D16*
X32550Y-24826D02*
X32550Y-24450D01*
X35050Y-25574D02*
X35050Y-26050D01*
X35050Y-26050D02*
X35400Y-26400D01*
X35400Y-26400D02*
X35400Y-27200D01*
X35400Y-27200D02*
X34300Y-27200D01*
X35400Y-32100D02*
X34300Y-32100D01*
X35400Y-31300D02*
X35400Y-32100D01*
X35050Y-30950D02*
X35400Y-31300D01*
X35050Y-30474D02*
X35050Y-30950D01*
X32550Y-29726D02*
X32550Y-29350D01*
G54D17*
X33426Y-29589D02*
X33426Y-29226D01*
G54D16*
X32200Y-28100D02*
X33300Y-28100D01*
X32200Y-29000D02*
X32200Y-28100D01*
X35050Y-29726D02*
X35050Y-29350D01*
X35050Y-29350D02*
X35400Y-29000D01*
X35400Y-29000D02*
X35400Y-28100D01*
X35400Y-28100D02*
X34300Y-28100D01*
G54D17*
X34174Y-30611D02*
X34174Y-30974D01*
X33800Y-30611D02*
X33800Y-31600D01*
G54D16*
X32550Y-30850D02*
X32550Y-30950D01*
X33400Y-32100D02*
X32200Y-32100D01*
X32550Y-30850D02*
X32550Y-30474D01*
X32200Y-31300D02*
X32200Y-32100D01*
X32550Y-30950D02*
X32200Y-31300D01*
X32550Y-29350D02*
X32200Y-29000D01*
G54D17*
X33426Y-29226D02*
X32800Y-28600D01*
X34174Y-29589D02*
X34174Y-29226D01*
X34174Y-29226D02*
X34800Y-28600D01*
X33800Y-29589D02*
X33800Y-28600D01*
X33426Y-30611D02*
X33426Y-30974D01*
G54D16*
X33400Y-32100D02*
X34300Y-32100D01*
G54D17*
X34174Y-30974D02*
X34800Y-31600D01*
X33426Y-30974D02*
X32800Y-31600D01*
G54D16*
X33300Y-28100D02*
X34300Y-28100D01*
X23700Y-32100D02*
X22600Y-32100D01*
X23700Y-31300D02*
X23700Y-32100D01*
X23350Y-30950D02*
X23700Y-31300D01*
X23350Y-30474D02*
X23350Y-30950D01*
X20850Y-29726D02*
X20850Y-29350D01*
G54D17*
X21726Y-29589D02*
X21726Y-29226D01*
G54D16*
X20500Y-28100D02*
X21600Y-28100D01*
X20500Y-29000D02*
X20500Y-28100D01*
X23350Y-29726D02*
X23350Y-29350D01*
X23350Y-29350D02*
X23700Y-29000D01*
X23700Y-29000D02*
X23700Y-28100D01*
X23700Y-28100D02*
X22600Y-28100D01*
G54D17*
X22474Y-30611D02*
X22474Y-30974D01*
X22100Y-30611D02*
X22100Y-31600D01*
G54D16*
X20850Y-30850D02*
X20850Y-30950D01*
X21700Y-32100D02*
X20500Y-32100D01*
X20850Y-30850D02*
X20850Y-30474D01*
X20500Y-31300D02*
X20500Y-32100D01*
X20850Y-30950D02*
X20500Y-31300D01*
X20850Y-29350D02*
X20500Y-29000D01*
G54D17*
X21726Y-29226D02*
X21100Y-28600D01*
X22474Y-29589D02*
X22474Y-29226D01*
X22474Y-29226D02*
X23100Y-28600D01*
X22100Y-29589D02*
X22100Y-28600D01*
X21726Y-30611D02*
X21726Y-30974D01*
G54D16*
X21700Y-32100D02*
X22600Y-32100D01*
G54D17*
X22474Y-30974D02*
X23100Y-31600D01*
X21726Y-30974D02*
X21100Y-31600D01*
G54D16*
X21600Y-28100D02*
X22600Y-28100D01*
X17700Y-28100D02*
X18700Y-28100D01*
G54D17*
X17826Y-30974D02*
X17200Y-31600D01*
X18574Y-30974D02*
X19200Y-31600D01*
G54D16*
X17800Y-32100D02*
X18700Y-32100D01*
G54D17*
X17826Y-30611D02*
X17826Y-30974D01*
X18200Y-29589D02*
X18200Y-28600D01*
X18574Y-29226D02*
X19200Y-28600D01*
X18574Y-29589D02*
X18574Y-29226D01*
X17826Y-29226D02*
X17200Y-28600D01*
G54D16*
X16950Y-29350D02*
X16600Y-29000D01*
X16950Y-30950D02*
X16600Y-31300D01*
X16600Y-31300D02*
X16600Y-32100D01*
X16950Y-30850D02*
X16950Y-30474D01*
X17800Y-32100D02*
X16600Y-32100D01*
X16950Y-30850D02*
X16950Y-30950D01*
G54D17*
X18200Y-30611D02*
X18200Y-31600D01*
X18574Y-30611D02*
X18574Y-30974D01*
G54D16*
X19800Y-28100D02*
X18700Y-28100D01*
X19800Y-29000D02*
X19800Y-28100D01*
X19450Y-29350D02*
X19800Y-29000D01*
X19450Y-29726D02*
X19450Y-29350D01*
X16600Y-29000D02*
X16600Y-28100D01*
X16600Y-28100D02*
X17700Y-28100D01*
G54D17*
X17826Y-29589D02*
X17826Y-29226D01*
G54D16*
X16950Y-29726D02*
X16950Y-29350D01*
X19450Y-30474D02*
X19450Y-30950D01*
X19450Y-30950D02*
X19800Y-31300D01*
X19800Y-31300D02*
X19800Y-32100D01*
X19800Y-32100D02*
X18700Y-32100D01*
X27600Y-32100D02*
X26500Y-32100D01*
X27600Y-31300D02*
X27600Y-32100D01*
X27250Y-30950D02*
X27600Y-31300D01*
X27250Y-30474D02*
X27250Y-30950D01*
X24750Y-29726D02*
X24750Y-29350D01*
G54D17*
X25626Y-29589D02*
X25626Y-29226D01*
G54D16*
X24400Y-28100D02*
X25500Y-28100D01*
X24400Y-29000D02*
X24400Y-28100D01*
X27250Y-29726D02*
X27250Y-29350D01*
X27250Y-29350D02*
X27600Y-29000D01*
X27600Y-29000D02*
X27600Y-28100D01*
X27600Y-28100D02*
X26500Y-28100D01*
G54D17*
X26374Y-30611D02*
X26374Y-30974D01*
X26000Y-30611D02*
X26000Y-31600D01*
G54D16*
X24750Y-30850D02*
X24750Y-30950D01*
X25600Y-32100D02*
X24400Y-32100D01*
X24750Y-30850D02*
X24750Y-30474D01*
X24400Y-31300D02*
X24400Y-32100D01*
X24750Y-30950D02*
X24400Y-31300D01*
X24750Y-29350D02*
X24400Y-29000D01*
G54D17*
X25626Y-29226D02*
X25000Y-28600D01*
X26374Y-29589D02*
X26374Y-29226D01*
X26374Y-29226D02*
X27000Y-28600D01*
X26000Y-29589D02*
X26000Y-28600D01*
X25626Y-30611D02*
X25626Y-30974D01*
G54D16*
X25600Y-32100D02*
X26500Y-32100D01*
G54D17*
X26374Y-30974D02*
X27000Y-31600D01*
X25626Y-30974D02*
X25000Y-31600D01*
G54D16*
X25500Y-28100D02*
X26500Y-28100D01*
X29400Y-28100D02*
X30400Y-28100D01*
G54D17*
X29526Y-30974D02*
X28900Y-31600D01*
X30274Y-30974D02*
X30900Y-31600D01*
G54D16*
X29500Y-32100D02*
X30400Y-32100D01*
G54D17*
X29526Y-30611D02*
X29526Y-30974D01*
X29900Y-29589D02*
X29900Y-28600D01*
X30274Y-29226D02*
X30900Y-28600D01*
X30274Y-29589D02*
X30274Y-29226D01*
X29526Y-29226D02*
X28900Y-28600D01*
G54D16*
X28650Y-29350D02*
X28300Y-29000D01*
X28650Y-30950D02*
X28300Y-31300D01*
X28300Y-31300D02*
X28300Y-32100D01*
X28650Y-30850D02*
X28650Y-30474D01*
X29500Y-32100D02*
X28300Y-32100D01*
X28650Y-30850D02*
X28650Y-30950D01*
G54D17*
X29900Y-30611D02*
X29900Y-31600D01*
X30274Y-30611D02*
X30274Y-30974D01*
G54D16*
X31500Y-28100D02*
X30400Y-28100D01*
X31500Y-29000D02*
X31500Y-28100D01*
X31150Y-29350D02*
X31500Y-29000D01*
X31150Y-29726D02*
X31150Y-29350D01*
X28300Y-29000D02*
X28300Y-28100D01*
X28300Y-28100D02*
X29400Y-28100D01*
G54D17*
X29526Y-29589D02*
X29526Y-29226D01*
G54D16*
X28650Y-29726D02*
X28650Y-29350D01*
X31150Y-30474D02*
X31150Y-30950D01*
X31150Y-30950D02*
X31500Y-31300D01*
X31500Y-31300D02*
X31500Y-32100D01*
X31500Y-32100D02*
X30400Y-32100D01*
M02*
