G04 (created by PCBNEW (2013-04-28 BZR 4117)-testing) date Mon 29 Apr 2013 06:53:23 PM CEST*
%MOIN*%
G04 Gerber Fmt 3.4, Leading zero omitted, Abs format*
%FSLAX34Y34*%
G01*
G70*
G90*
G04 APERTURE LIST*
%ADD10C,2.3622e-06*%
%ADD11C,0.00787402*%
G04 APERTURE END LIST*
G54D10*
G54D11*
X31700Y-22600D02*
X31700Y-18000D01*
X28100Y-18000D02*
X28100Y-22600D01*
X28100Y-18000D02*
X31700Y-18000D01*
X28100Y-22600D02*
X31700Y-22600D01*
X24200Y-22600D02*
X27800Y-22600D01*
X24200Y-18000D02*
X27800Y-18000D01*
X24200Y-18000D02*
X24200Y-22600D01*
X27800Y-22600D02*
X27800Y-18000D01*
X20000Y-22600D02*
X20000Y-18000D01*
X16400Y-18000D02*
X16400Y-22600D01*
X16400Y-18000D02*
X20000Y-18000D01*
X16400Y-22600D02*
X20000Y-22600D01*
X20300Y-22600D02*
X23900Y-22600D01*
X20300Y-18000D02*
X23900Y-18000D01*
X20300Y-18000D02*
X20300Y-22600D01*
X23900Y-22600D02*
X23900Y-18000D01*
X32000Y-22600D02*
X35600Y-22600D01*
X32000Y-18000D02*
X35600Y-18000D01*
X32000Y-18000D02*
X32000Y-22600D01*
X35600Y-22600D02*
X35600Y-18000D01*
X35600Y-17700D02*
X35600Y-13100D01*
X32000Y-13100D02*
X32000Y-17700D01*
X32000Y-13100D02*
X35600Y-13100D01*
X32000Y-17700D02*
X35600Y-17700D01*
X23900Y-17700D02*
X23900Y-13100D01*
X20300Y-13100D02*
X20300Y-17700D01*
X20300Y-13100D02*
X23900Y-13100D01*
X20300Y-17700D02*
X23900Y-17700D01*
X16400Y-17700D02*
X20000Y-17700D01*
X16400Y-13100D02*
X20000Y-13100D01*
X16400Y-13100D02*
X16400Y-17700D01*
X20000Y-17700D02*
X20000Y-13100D01*
X27800Y-17700D02*
X27800Y-13100D01*
X24200Y-13100D02*
X24200Y-17700D01*
X24200Y-13100D02*
X27800Y-13100D01*
X24200Y-17700D02*
X27800Y-17700D01*
X28100Y-17700D02*
X31700Y-17700D01*
X28100Y-13100D02*
X31700Y-13100D01*
X28100Y-13100D02*
X28100Y-17700D01*
X31700Y-17700D02*
X31700Y-13100D01*
X31700Y-27500D02*
X31700Y-22900D01*
X28100Y-22900D02*
X28100Y-27500D01*
X28100Y-22900D02*
X31700Y-22900D01*
X28100Y-27500D02*
X31700Y-27500D01*
X24200Y-27500D02*
X27800Y-27500D01*
X24200Y-22900D02*
X27800Y-22900D01*
X24200Y-22900D02*
X24200Y-27500D01*
X27800Y-27500D02*
X27800Y-22900D01*
X20000Y-27500D02*
X20000Y-22900D01*
X16400Y-22900D02*
X16400Y-27500D01*
X16400Y-22900D02*
X20000Y-22900D01*
X16400Y-27500D02*
X20000Y-27500D01*
X20300Y-27500D02*
X23900Y-27500D01*
X20300Y-22900D02*
X23900Y-22900D01*
X20300Y-22900D02*
X20300Y-27500D01*
X23900Y-27500D02*
X23900Y-22900D01*
X32000Y-27500D02*
X35600Y-27500D01*
X32000Y-22900D02*
X35600Y-22900D01*
X32000Y-22900D02*
X32000Y-27500D01*
X35600Y-27500D02*
X35600Y-22900D01*
X35600Y-32400D02*
X35600Y-27800D01*
X32000Y-27800D02*
X32000Y-32400D01*
X32000Y-27800D02*
X35600Y-27800D01*
X32000Y-32400D02*
X35600Y-32400D01*
X23900Y-32400D02*
X23900Y-27800D01*
X20300Y-27800D02*
X20300Y-32400D01*
X20300Y-27800D02*
X23900Y-27800D01*
X20300Y-32400D02*
X23900Y-32400D01*
X16400Y-32400D02*
X20000Y-32400D01*
X16400Y-27800D02*
X20000Y-27800D01*
X16400Y-27800D02*
X16400Y-32400D01*
X20000Y-32400D02*
X20000Y-27800D01*
X27800Y-32400D02*
X27800Y-27800D01*
X24200Y-27800D02*
X24200Y-32400D01*
X24200Y-27800D02*
X27800Y-27800D01*
X24200Y-32400D02*
X27800Y-32400D01*
X28100Y-32400D02*
X31700Y-32400D01*
X28100Y-27800D02*
X31700Y-27800D01*
X28100Y-27800D02*
X28100Y-32400D01*
X31700Y-32400D02*
X31700Y-27800D01*
M02*
