M48
METRIC,TZ
T1C0.330
T2C1.016
%
G90
G05
T1
X044958Y-034036
X044958Y-046482
X044958Y-058928
X044958Y-071374
X045212Y-044196
X045212Y-056642
X045212Y-069088
X045212Y-081534
X047498Y-034036
X047498Y-044196
X047498Y-046482
X047498Y-056642
X047498Y-058928
X047498Y-069088
X047498Y-071374
X047498Y-081534
X054864Y-034036
X054864Y-046482
X054864Y-058928
X054864Y-071374
X055118Y-044196
X055118Y-056642
X055118Y-069088
X055118Y-081534
X057404Y-034036
X057404Y-044196
X057404Y-046482
X057404Y-056642
X057404Y-058928
X057404Y-069088
X057404Y-071374
X057404Y-081534
X064770Y-034036
X064770Y-046482
X064770Y-058928
X064770Y-071374
X065024Y-044196
X065024Y-056642
X065024Y-069088
X065024Y-081534
X067310Y-034036
X067310Y-044196
X067310Y-046482
X067310Y-056642
X067310Y-058928
X067310Y-069088
X067310Y-071374
X067310Y-081534
X074676Y-034036
X074676Y-046482
X074676Y-058928
X074676Y-071374
X074930Y-044196
X074930Y-056642
X074930Y-069088
X074930Y-081534
X077216Y-034036
X077216Y-044196
X077216Y-046482
X077216Y-056642
X077216Y-058928
X077216Y-069088
X077216Y-071374
X077216Y-081534
X084582Y-034036
X084582Y-046482
X084582Y-058928
X084582Y-071374
X084836Y-044196
X084836Y-056642
X084836Y-069088
X084836Y-081534
X087122Y-034036
X087122Y-044196
X087122Y-046482
X087122Y-056642
X087122Y-058928
X087122Y-069088
X087122Y-071374
X087122Y-081534
T2
X043688Y-035306
X043688Y-042926
X043688Y-047752
X043688Y-055372
X043688Y-060198
X043688Y-067818
X043688Y-072644
X043688Y-080264
X046228Y-035306
X046228Y-042926
X046228Y-047752
X046228Y-055372
X046228Y-060198
X046228Y-067818
X046228Y-072644
X046228Y-080264
X048768Y-035306
X048768Y-042926
X048768Y-047752
X048768Y-055372
X048768Y-060198
X048768Y-067818
X048768Y-072644
X048768Y-080264
X053594Y-035306
X053594Y-042926
X053594Y-047752
X053594Y-055372
X053594Y-060198
X053594Y-067818
X053594Y-072644
X053594Y-080264
X056134Y-035306
X056134Y-042926
X056134Y-047752
X056134Y-055372
X056134Y-060198
X056134Y-067818
X056134Y-072644
X056134Y-080264
X058674Y-035306
X058674Y-042926
X058674Y-047752
X058674Y-055372
X058674Y-060198
X058674Y-067818
X058674Y-072644
X058674Y-080264
X063500Y-035306
X063500Y-042926
X063500Y-047752
X063500Y-055372
X063500Y-060198
X063500Y-067818
X063500Y-072644
X063500Y-080264
X066040Y-035306
X066040Y-042926
X066040Y-047752
X066040Y-055372
X066040Y-060198
X066040Y-067818
X066040Y-072644
X066040Y-080264
X068580Y-035306
X068580Y-042926
X068580Y-047752
X068580Y-055372
X068580Y-060198
X068580Y-067818
X068580Y-072644
X068580Y-080264
X073406Y-035306
X073406Y-042926
X073406Y-047752
X073406Y-055372
X073406Y-060198
X073406Y-067818
X073406Y-072644
X073406Y-080264
X075946Y-035306
X075946Y-042926
X075946Y-047752
X075946Y-055372
X075946Y-060198
X075946Y-067818
X075946Y-072644
X075946Y-080264
X078486Y-035306
X078486Y-042926
X078486Y-047752
X078486Y-055372
X078486Y-060198
X078486Y-067818
X078486Y-072644
X078486Y-080264
X083312Y-035306
X083312Y-042926
X083312Y-047752
X083312Y-055372
X083312Y-060198
X083312Y-067818
X083312Y-072644
X083312Y-080264
X085852Y-035306
X085852Y-042926
X085852Y-047752
X085852Y-055372
X085852Y-060198
X085852Y-067818
X085852Y-072644
X085852Y-080264
X088392Y-035306
X088392Y-042926
X088392Y-047752
X088392Y-055372
X088392Y-060198
X088392Y-067818
X088392Y-072644
X088392Y-080264
T0
M30
