G04 (created by PCBNEW (2013-04-28 BZR 4117)-testing) date Mon 29 Apr 2013 06:53:22 PM CEST*
%MOIN*%
G04 Gerber Fmt 3.4, Leading zero omitted, Abs format*
%FSLAX34Y34*%
G01*
G70*
G90*
G04 APERTURE LIST*
%ADD10C,2.3622e-06*%
%ADD11R,0.0295X0.0394*%
%ADD12R,0.0689X0.0295*%
%ADD13R,0.0709X0.0709*%
%ADD14C,0.0709*%
%ADD15C,0.008*%
G04 APERTURE END LIST*
G54D10*
G54D11*
X29100Y-19900D03*
X28700Y-19900D03*
G54D12*
X28900Y-19500D03*
X29900Y-19500D03*
X30900Y-19500D03*
G54D11*
X29700Y-19900D03*
X30100Y-19900D03*
X31100Y-19900D03*
X30700Y-19900D03*
G54D12*
X30900Y-21100D03*
X29900Y-21100D03*
X28900Y-21100D03*
G54D11*
X29100Y-20700D03*
X28700Y-20700D03*
X29700Y-20700D03*
X30100Y-20700D03*
X31100Y-20700D03*
X30700Y-20700D03*
G54D13*
X28900Y-21800D03*
G54D14*
X29900Y-21800D03*
X30900Y-21800D03*
X30900Y-18800D03*
X29900Y-18800D03*
X28900Y-18800D03*
G54D13*
X25000Y-21800D03*
G54D14*
X26000Y-21800D03*
X27000Y-21800D03*
X27000Y-18800D03*
X26000Y-18800D03*
X25000Y-18800D03*
G54D11*
X26800Y-20700D03*
X27200Y-20700D03*
X26200Y-20700D03*
X25800Y-20700D03*
X24800Y-20700D03*
X25200Y-20700D03*
G54D12*
X25000Y-21100D03*
X26000Y-21100D03*
X27000Y-21100D03*
G54D11*
X26800Y-19900D03*
X27200Y-19900D03*
X26200Y-19900D03*
X25800Y-19900D03*
G54D12*
X27000Y-19500D03*
X26000Y-19500D03*
X25000Y-19500D03*
G54D11*
X24800Y-19900D03*
X25200Y-19900D03*
X17400Y-19900D03*
X17000Y-19900D03*
G54D12*
X17200Y-19500D03*
X18200Y-19500D03*
X19200Y-19500D03*
G54D11*
X18000Y-19900D03*
X18400Y-19900D03*
X19400Y-19900D03*
X19000Y-19900D03*
G54D12*
X19200Y-21100D03*
X18200Y-21100D03*
X17200Y-21100D03*
G54D11*
X17400Y-20700D03*
X17000Y-20700D03*
X18000Y-20700D03*
X18400Y-20700D03*
X19400Y-20700D03*
X19000Y-20700D03*
G54D13*
X17200Y-21800D03*
G54D14*
X18200Y-21800D03*
X19200Y-21800D03*
X19200Y-18800D03*
X18200Y-18800D03*
X17200Y-18800D03*
G54D13*
X21100Y-21800D03*
G54D14*
X22100Y-21800D03*
X23100Y-21800D03*
X23100Y-18800D03*
X22100Y-18800D03*
X21100Y-18800D03*
G54D11*
X22900Y-20700D03*
X23300Y-20700D03*
X22300Y-20700D03*
X21900Y-20700D03*
X20900Y-20700D03*
X21300Y-20700D03*
G54D12*
X21100Y-21100D03*
X22100Y-21100D03*
X23100Y-21100D03*
G54D11*
X22900Y-19900D03*
X23300Y-19900D03*
X22300Y-19900D03*
X21900Y-19900D03*
G54D12*
X23100Y-19500D03*
X22100Y-19500D03*
X21100Y-19500D03*
G54D11*
X20900Y-19900D03*
X21300Y-19900D03*
G54D13*
X32800Y-21800D03*
G54D14*
X33800Y-21800D03*
X34800Y-21800D03*
X34800Y-18800D03*
X33800Y-18800D03*
X32800Y-18800D03*
G54D11*
X34600Y-20700D03*
X35000Y-20700D03*
X34000Y-20700D03*
X33600Y-20700D03*
X32600Y-20700D03*
X33000Y-20700D03*
G54D12*
X32800Y-21100D03*
X33800Y-21100D03*
X34800Y-21100D03*
G54D11*
X34600Y-19900D03*
X35000Y-19900D03*
X34000Y-19900D03*
X33600Y-19900D03*
G54D12*
X34800Y-19500D03*
X33800Y-19500D03*
X32800Y-19500D03*
G54D11*
X32600Y-19900D03*
X33000Y-19900D03*
X33000Y-15000D03*
X32600Y-15000D03*
G54D12*
X32800Y-14600D03*
X33800Y-14600D03*
X34800Y-14600D03*
G54D11*
X33600Y-15000D03*
X34000Y-15000D03*
X35000Y-15000D03*
X34600Y-15000D03*
G54D12*
X34800Y-16200D03*
X33800Y-16200D03*
X32800Y-16200D03*
G54D11*
X33000Y-15800D03*
X32600Y-15800D03*
X33600Y-15800D03*
X34000Y-15800D03*
X35000Y-15800D03*
X34600Y-15800D03*
G54D13*
X32800Y-16900D03*
G54D14*
X33800Y-16900D03*
X34800Y-16900D03*
X34800Y-13900D03*
X33800Y-13900D03*
X32800Y-13900D03*
G54D11*
X21300Y-15000D03*
X20900Y-15000D03*
G54D12*
X21100Y-14600D03*
X22100Y-14600D03*
X23100Y-14600D03*
G54D11*
X21900Y-15000D03*
X22300Y-15000D03*
X23300Y-15000D03*
X22900Y-15000D03*
G54D12*
X23100Y-16200D03*
X22100Y-16200D03*
X21100Y-16200D03*
G54D11*
X21300Y-15800D03*
X20900Y-15800D03*
X21900Y-15800D03*
X22300Y-15800D03*
X23300Y-15800D03*
X22900Y-15800D03*
G54D13*
X21100Y-16900D03*
G54D14*
X22100Y-16900D03*
X23100Y-16900D03*
X23100Y-13900D03*
X22100Y-13900D03*
X21100Y-13900D03*
G54D13*
X17200Y-16900D03*
G54D14*
X18200Y-16900D03*
X19200Y-16900D03*
X19200Y-13900D03*
X18200Y-13900D03*
X17200Y-13900D03*
G54D11*
X19000Y-15800D03*
X19400Y-15800D03*
X18400Y-15800D03*
X18000Y-15800D03*
X17000Y-15800D03*
X17400Y-15800D03*
G54D12*
X17200Y-16200D03*
X18200Y-16200D03*
X19200Y-16200D03*
G54D11*
X19000Y-15000D03*
X19400Y-15000D03*
X18400Y-15000D03*
X18000Y-15000D03*
G54D12*
X19200Y-14600D03*
X18200Y-14600D03*
X17200Y-14600D03*
G54D11*
X17000Y-15000D03*
X17400Y-15000D03*
X25200Y-15000D03*
X24800Y-15000D03*
G54D12*
X25000Y-14600D03*
X26000Y-14600D03*
X27000Y-14600D03*
G54D11*
X25800Y-15000D03*
X26200Y-15000D03*
X27200Y-15000D03*
X26800Y-15000D03*
G54D12*
X27000Y-16200D03*
X26000Y-16200D03*
X25000Y-16200D03*
G54D11*
X25200Y-15800D03*
X24800Y-15800D03*
X25800Y-15800D03*
X26200Y-15800D03*
X27200Y-15800D03*
X26800Y-15800D03*
G54D13*
X25000Y-16900D03*
G54D14*
X26000Y-16900D03*
X27000Y-16900D03*
X27000Y-13900D03*
X26000Y-13900D03*
X25000Y-13900D03*
G54D13*
X28900Y-16900D03*
G54D14*
X29900Y-16900D03*
X30900Y-16900D03*
X30900Y-13900D03*
X29900Y-13900D03*
X28900Y-13900D03*
G54D11*
X30700Y-15800D03*
X31100Y-15800D03*
X30100Y-15800D03*
X29700Y-15800D03*
X28700Y-15800D03*
X29100Y-15800D03*
G54D12*
X28900Y-16200D03*
X29900Y-16200D03*
X30900Y-16200D03*
G54D11*
X30700Y-15000D03*
X31100Y-15000D03*
X30100Y-15000D03*
X29700Y-15000D03*
G54D12*
X30900Y-14600D03*
X29900Y-14600D03*
X28900Y-14600D03*
G54D11*
X28700Y-15000D03*
X29100Y-15000D03*
X29100Y-24800D03*
X28700Y-24800D03*
G54D12*
X28900Y-24400D03*
X29900Y-24400D03*
X30900Y-24400D03*
G54D11*
X29700Y-24800D03*
X30100Y-24800D03*
X31100Y-24800D03*
X30700Y-24800D03*
G54D12*
X30900Y-26000D03*
X29900Y-26000D03*
X28900Y-26000D03*
G54D11*
X29100Y-25600D03*
X28700Y-25600D03*
X29700Y-25600D03*
X30100Y-25600D03*
X31100Y-25600D03*
X30700Y-25600D03*
G54D13*
X28900Y-26700D03*
G54D14*
X29900Y-26700D03*
X30900Y-26700D03*
X30900Y-23700D03*
X29900Y-23700D03*
X28900Y-23700D03*
G54D13*
X25000Y-26700D03*
G54D14*
X26000Y-26700D03*
X27000Y-26700D03*
X27000Y-23700D03*
X26000Y-23700D03*
X25000Y-23700D03*
G54D11*
X26800Y-25600D03*
X27200Y-25600D03*
X26200Y-25600D03*
X25800Y-25600D03*
X24800Y-25600D03*
X25200Y-25600D03*
G54D12*
X25000Y-26000D03*
X26000Y-26000D03*
X27000Y-26000D03*
G54D11*
X26800Y-24800D03*
X27200Y-24800D03*
X26200Y-24800D03*
X25800Y-24800D03*
G54D12*
X27000Y-24400D03*
X26000Y-24400D03*
X25000Y-24400D03*
G54D11*
X24800Y-24800D03*
X25200Y-24800D03*
X17400Y-24800D03*
X17000Y-24800D03*
G54D12*
X17200Y-24400D03*
X18200Y-24400D03*
X19200Y-24400D03*
G54D11*
X18000Y-24800D03*
X18400Y-24800D03*
X19400Y-24800D03*
X19000Y-24800D03*
G54D12*
X19200Y-26000D03*
X18200Y-26000D03*
X17200Y-26000D03*
G54D11*
X17400Y-25600D03*
X17000Y-25600D03*
X18000Y-25600D03*
X18400Y-25600D03*
X19400Y-25600D03*
X19000Y-25600D03*
G54D13*
X17200Y-26700D03*
G54D14*
X18200Y-26700D03*
X19200Y-26700D03*
X19200Y-23700D03*
X18200Y-23700D03*
X17200Y-23700D03*
G54D13*
X21100Y-26700D03*
G54D14*
X22100Y-26700D03*
X23100Y-26700D03*
X23100Y-23700D03*
X22100Y-23700D03*
X21100Y-23700D03*
G54D11*
X22900Y-25600D03*
X23300Y-25600D03*
X22300Y-25600D03*
X21900Y-25600D03*
X20900Y-25600D03*
X21300Y-25600D03*
G54D12*
X21100Y-26000D03*
X22100Y-26000D03*
X23100Y-26000D03*
G54D11*
X22900Y-24800D03*
X23300Y-24800D03*
X22300Y-24800D03*
X21900Y-24800D03*
G54D12*
X23100Y-24400D03*
X22100Y-24400D03*
X21100Y-24400D03*
G54D11*
X20900Y-24800D03*
X21300Y-24800D03*
G54D13*
X32800Y-26700D03*
G54D14*
X33800Y-26700D03*
X34800Y-26700D03*
X34800Y-23700D03*
X33800Y-23700D03*
X32800Y-23700D03*
G54D11*
X34600Y-25600D03*
X35000Y-25600D03*
X34000Y-25600D03*
X33600Y-25600D03*
X32600Y-25600D03*
X33000Y-25600D03*
G54D12*
X32800Y-26000D03*
X33800Y-26000D03*
X34800Y-26000D03*
G54D11*
X34600Y-24800D03*
X35000Y-24800D03*
X34000Y-24800D03*
X33600Y-24800D03*
G54D12*
X34800Y-24400D03*
X33800Y-24400D03*
X32800Y-24400D03*
G54D11*
X32600Y-24800D03*
X33000Y-24800D03*
X33000Y-29700D03*
X32600Y-29700D03*
G54D12*
X32800Y-29300D03*
X33800Y-29300D03*
X34800Y-29300D03*
G54D11*
X33600Y-29700D03*
X34000Y-29700D03*
X35000Y-29700D03*
X34600Y-29700D03*
G54D12*
X34800Y-30900D03*
X33800Y-30900D03*
X32800Y-30900D03*
G54D11*
X33000Y-30500D03*
X32600Y-30500D03*
X33600Y-30500D03*
X34000Y-30500D03*
X35000Y-30500D03*
X34600Y-30500D03*
G54D13*
X32800Y-31600D03*
G54D14*
X33800Y-31600D03*
X34800Y-31600D03*
X34800Y-28600D03*
X33800Y-28600D03*
X32800Y-28600D03*
G54D11*
X21300Y-29700D03*
X20900Y-29700D03*
G54D12*
X21100Y-29300D03*
X22100Y-29300D03*
X23100Y-29300D03*
G54D11*
X21900Y-29700D03*
X22300Y-29700D03*
X23300Y-29700D03*
X22900Y-29700D03*
G54D12*
X23100Y-30900D03*
X22100Y-30900D03*
X21100Y-30900D03*
G54D11*
X21300Y-30500D03*
X20900Y-30500D03*
X21900Y-30500D03*
X22300Y-30500D03*
X23300Y-30500D03*
X22900Y-30500D03*
G54D13*
X21100Y-31600D03*
G54D14*
X22100Y-31600D03*
X23100Y-31600D03*
X23100Y-28600D03*
X22100Y-28600D03*
X21100Y-28600D03*
G54D13*
X17200Y-31600D03*
G54D14*
X18200Y-31600D03*
X19200Y-31600D03*
X19200Y-28600D03*
X18200Y-28600D03*
X17200Y-28600D03*
G54D11*
X19000Y-30500D03*
X19400Y-30500D03*
X18400Y-30500D03*
X18000Y-30500D03*
X17000Y-30500D03*
X17400Y-30500D03*
G54D12*
X17200Y-30900D03*
X18200Y-30900D03*
X19200Y-30900D03*
G54D11*
X19000Y-29700D03*
X19400Y-29700D03*
X18400Y-29700D03*
X18000Y-29700D03*
G54D12*
X19200Y-29300D03*
X18200Y-29300D03*
X17200Y-29300D03*
G54D11*
X17000Y-29700D03*
X17400Y-29700D03*
X25200Y-29700D03*
X24800Y-29700D03*
G54D12*
X25000Y-29300D03*
X26000Y-29300D03*
X27000Y-29300D03*
G54D11*
X25800Y-29700D03*
X26200Y-29700D03*
X27200Y-29700D03*
X26800Y-29700D03*
G54D12*
X27000Y-30900D03*
X26000Y-30900D03*
X25000Y-30900D03*
G54D11*
X25200Y-30500D03*
X24800Y-30500D03*
X25800Y-30500D03*
X26200Y-30500D03*
X27200Y-30500D03*
X26800Y-30500D03*
G54D13*
X25000Y-31600D03*
G54D14*
X26000Y-31600D03*
X27000Y-31600D03*
X27000Y-28600D03*
X26000Y-28600D03*
X25000Y-28600D03*
G54D13*
X28900Y-31600D03*
G54D14*
X29900Y-31600D03*
X30900Y-31600D03*
X30900Y-28600D03*
X29900Y-28600D03*
X28900Y-28600D03*
G54D11*
X30700Y-30500D03*
X31100Y-30500D03*
X30100Y-30500D03*
X29700Y-30500D03*
X28700Y-30500D03*
X29100Y-30500D03*
G54D12*
X28900Y-30900D03*
X29900Y-30900D03*
X30900Y-30900D03*
G54D11*
X30700Y-29700D03*
X31100Y-29700D03*
X30100Y-29700D03*
X29700Y-29700D03*
G54D12*
X30900Y-29300D03*
X29900Y-29300D03*
X28900Y-29300D03*
G54D11*
X28700Y-29700D03*
X29100Y-29700D03*
G54D10*
G36*
X29275Y-29925D02*
X29275Y-29125D01*
X28525Y-29125D01*
X28525Y-29925D01*
X29275Y-29925D01*
X29275Y-29925D01*
G37*
G54D15*
X29275Y-29925D02*
X29275Y-29125D01*
X28525Y-29125D01*
X28525Y-29925D01*
X29275Y-29925D01*
G54D10*
G36*
X30275Y-29925D02*
X30275Y-29125D01*
X29525Y-29125D01*
X29525Y-29925D01*
X30275Y-29925D01*
X30275Y-29925D01*
G37*
G54D15*
X30275Y-29925D02*
X30275Y-29125D01*
X29525Y-29125D01*
X29525Y-29925D01*
X30275Y-29925D01*
G54D10*
G36*
X31275Y-29925D02*
X31275Y-29125D01*
X30525Y-29125D01*
X30525Y-29925D01*
X31275Y-29925D01*
X31275Y-29925D01*
G37*
G54D15*
X31275Y-29925D02*
X31275Y-29125D01*
X30525Y-29125D01*
X30525Y-29925D01*
X31275Y-29925D01*
G54D10*
G36*
X29275Y-31075D02*
X29275Y-30275D01*
X28525Y-30275D01*
X28525Y-31075D01*
X29275Y-31075D01*
X29275Y-31075D01*
G37*
G54D15*
X29275Y-31075D02*
X29275Y-30275D01*
X28525Y-30275D01*
X28525Y-31075D01*
X29275Y-31075D01*
G54D10*
G36*
X30275Y-31075D02*
X30275Y-30275D01*
X29525Y-30275D01*
X29525Y-31075D01*
X30275Y-31075D01*
X30275Y-31075D01*
G37*
G54D15*
X30275Y-31075D02*
X30275Y-30275D01*
X29525Y-30275D01*
X29525Y-31075D01*
X30275Y-31075D01*
G54D10*
G36*
X31275Y-31075D02*
X31275Y-30275D01*
X30525Y-30275D01*
X30525Y-31075D01*
X31275Y-31075D01*
X31275Y-31075D01*
G37*
G54D15*
X31275Y-31075D02*
X31275Y-30275D01*
X30525Y-30275D01*
X30525Y-31075D01*
X31275Y-31075D01*
G54D10*
G36*
X25375Y-29925D02*
X25375Y-29125D01*
X24625Y-29125D01*
X24625Y-29925D01*
X25375Y-29925D01*
X25375Y-29925D01*
G37*
G54D15*
X25375Y-29925D02*
X25375Y-29125D01*
X24625Y-29125D01*
X24625Y-29925D01*
X25375Y-29925D01*
G54D10*
G36*
X26375Y-29925D02*
X26375Y-29125D01*
X25625Y-29125D01*
X25625Y-29925D01*
X26375Y-29925D01*
X26375Y-29925D01*
G37*
G54D15*
X26375Y-29925D02*
X26375Y-29125D01*
X25625Y-29125D01*
X25625Y-29925D01*
X26375Y-29925D01*
G54D10*
G36*
X27375Y-29925D02*
X27375Y-29125D01*
X26625Y-29125D01*
X26625Y-29925D01*
X27375Y-29925D01*
X27375Y-29925D01*
G37*
G54D15*
X27375Y-29925D02*
X27375Y-29125D01*
X26625Y-29125D01*
X26625Y-29925D01*
X27375Y-29925D01*
G54D10*
G36*
X25375Y-31075D02*
X25375Y-30275D01*
X24625Y-30275D01*
X24625Y-31075D01*
X25375Y-31075D01*
X25375Y-31075D01*
G37*
G54D15*
X25375Y-31075D02*
X25375Y-30275D01*
X24625Y-30275D01*
X24625Y-31075D01*
X25375Y-31075D01*
G54D10*
G36*
X26375Y-31075D02*
X26375Y-30275D01*
X25625Y-30275D01*
X25625Y-31075D01*
X26375Y-31075D01*
X26375Y-31075D01*
G37*
G54D15*
X26375Y-31075D02*
X26375Y-30275D01*
X25625Y-30275D01*
X25625Y-31075D01*
X26375Y-31075D01*
G54D10*
G36*
X27375Y-31075D02*
X27375Y-30275D01*
X26625Y-30275D01*
X26625Y-31075D01*
X27375Y-31075D01*
X27375Y-31075D01*
G37*
G54D15*
X27375Y-31075D02*
X27375Y-30275D01*
X26625Y-30275D01*
X26625Y-31075D01*
X27375Y-31075D01*
G54D10*
G36*
X21475Y-29925D02*
X21475Y-29125D01*
X20725Y-29125D01*
X20725Y-29925D01*
X21475Y-29925D01*
X21475Y-29925D01*
G37*
G54D15*
X21475Y-29925D02*
X21475Y-29125D01*
X20725Y-29125D01*
X20725Y-29925D01*
X21475Y-29925D01*
G54D10*
G36*
X22475Y-29925D02*
X22475Y-29125D01*
X21725Y-29125D01*
X21725Y-29925D01*
X22475Y-29925D01*
X22475Y-29925D01*
G37*
G54D15*
X22475Y-29925D02*
X22475Y-29125D01*
X21725Y-29125D01*
X21725Y-29925D01*
X22475Y-29925D01*
G54D10*
G36*
X23475Y-29925D02*
X23475Y-29125D01*
X22725Y-29125D01*
X22725Y-29925D01*
X23475Y-29925D01*
X23475Y-29925D01*
G37*
G54D15*
X23475Y-29925D02*
X23475Y-29125D01*
X22725Y-29125D01*
X22725Y-29925D01*
X23475Y-29925D01*
G54D10*
G36*
X21475Y-31075D02*
X21475Y-30275D01*
X20725Y-30275D01*
X20725Y-31075D01*
X21475Y-31075D01*
X21475Y-31075D01*
G37*
G54D15*
X21475Y-31075D02*
X21475Y-30275D01*
X20725Y-30275D01*
X20725Y-31075D01*
X21475Y-31075D01*
G54D10*
G36*
X22475Y-31075D02*
X22475Y-30275D01*
X21725Y-30275D01*
X21725Y-31075D01*
X22475Y-31075D01*
X22475Y-31075D01*
G37*
G54D15*
X22475Y-31075D02*
X22475Y-30275D01*
X21725Y-30275D01*
X21725Y-31075D01*
X22475Y-31075D01*
G54D10*
G36*
X23475Y-31075D02*
X23475Y-30275D01*
X22725Y-30275D01*
X22725Y-31075D01*
X23475Y-31075D01*
X23475Y-31075D01*
G37*
G54D15*
X23475Y-31075D02*
X23475Y-30275D01*
X22725Y-30275D01*
X22725Y-31075D01*
X23475Y-31075D01*
G54D10*
G36*
X17575Y-29925D02*
X17575Y-29125D01*
X16825Y-29125D01*
X16825Y-29925D01*
X17575Y-29925D01*
X17575Y-29925D01*
G37*
G54D15*
X17575Y-29925D02*
X17575Y-29125D01*
X16825Y-29125D01*
X16825Y-29925D01*
X17575Y-29925D01*
G54D10*
G36*
X18575Y-29925D02*
X18575Y-29125D01*
X17825Y-29125D01*
X17825Y-29925D01*
X18575Y-29925D01*
X18575Y-29925D01*
G37*
G54D15*
X18575Y-29925D02*
X18575Y-29125D01*
X17825Y-29125D01*
X17825Y-29925D01*
X18575Y-29925D01*
G54D10*
G36*
X19575Y-29925D02*
X19575Y-29125D01*
X18825Y-29125D01*
X18825Y-29925D01*
X19575Y-29925D01*
X19575Y-29925D01*
G37*
G54D15*
X19575Y-29925D02*
X19575Y-29125D01*
X18825Y-29125D01*
X18825Y-29925D01*
X19575Y-29925D01*
G54D10*
G36*
X17575Y-31075D02*
X17575Y-30275D01*
X16825Y-30275D01*
X16825Y-31075D01*
X17575Y-31075D01*
X17575Y-31075D01*
G37*
G54D15*
X17575Y-31075D02*
X17575Y-30275D01*
X16825Y-30275D01*
X16825Y-31075D01*
X17575Y-31075D01*
G54D10*
G36*
X18575Y-31075D02*
X18575Y-30275D01*
X17825Y-30275D01*
X17825Y-31075D01*
X18575Y-31075D01*
X18575Y-31075D01*
G37*
G54D15*
X18575Y-31075D02*
X18575Y-30275D01*
X17825Y-30275D01*
X17825Y-31075D01*
X18575Y-31075D01*
G54D10*
G36*
X19575Y-31075D02*
X19575Y-30275D01*
X18825Y-30275D01*
X18825Y-31075D01*
X19575Y-31075D01*
X19575Y-31075D01*
G37*
G54D15*
X19575Y-31075D02*
X19575Y-30275D01*
X18825Y-30275D01*
X18825Y-31075D01*
X19575Y-31075D01*
G54D10*
G36*
X33175Y-29925D02*
X33175Y-29125D01*
X32425Y-29125D01*
X32425Y-29925D01*
X33175Y-29925D01*
X33175Y-29925D01*
G37*
G54D15*
X33175Y-29925D02*
X33175Y-29125D01*
X32425Y-29125D01*
X32425Y-29925D01*
X33175Y-29925D01*
G54D10*
G36*
X34175Y-29925D02*
X34175Y-29125D01*
X33425Y-29125D01*
X33425Y-29925D01*
X34175Y-29925D01*
X34175Y-29925D01*
G37*
G54D15*
X34175Y-29925D02*
X34175Y-29125D01*
X33425Y-29125D01*
X33425Y-29925D01*
X34175Y-29925D01*
G54D10*
G36*
X35175Y-29925D02*
X35175Y-29125D01*
X34425Y-29125D01*
X34425Y-29925D01*
X35175Y-29925D01*
X35175Y-29925D01*
G37*
G54D15*
X35175Y-29925D02*
X35175Y-29125D01*
X34425Y-29125D01*
X34425Y-29925D01*
X35175Y-29925D01*
G54D10*
G36*
X33175Y-31075D02*
X33175Y-30275D01*
X32425Y-30275D01*
X32425Y-31075D01*
X33175Y-31075D01*
X33175Y-31075D01*
G37*
G54D15*
X33175Y-31075D02*
X33175Y-30275D01*
X32425Y-30275D01*
X32425Y-31075D01*
X33175Y-31075D01*
G54D10*
G36*
X34175Y-31075D02*
X34175Y-30275D01*
X33425Y-30275D01*
X33425Y-31075D01*
X34175Y-31075D01*
X34175Y-31075D01*
G37*
G54D15*
X34175Y-31075D02*
X34175Y-30275D01*
X33425Y-30275D01*
X33425Y-31075D01*
X34175Y-31075D01*
G54D10*
G36*
X35175Y-31075D02*
X35175Y-30275D01*
X34425Y-30275D01*
X34425Y-31075D01*
X35175Y-31075D01*
X35175Y-31075D01*
G37*
G54D15*
X35175Y-31075D02*
X35175Y-30275D01*
X34425Y-30275D01*
X34425Y-31075D01*
X35175Y-31075D01*
G54D10*
G36*
X29275Y-25025D02*
X29275Y-24225D01*
X28525Y-24225D01*
X28525Y-25025D01*
X29275Y-25025D01*
X29275Y-25025D01*
G37*
G54D15*
X29275Y-25025D02*
X29275Y-24225D01*
X28525Y-24225D01*
X28525Y-25025D01*
X29275Y-25025D01*
G54D10*
G36*
X30275Y-25025D02*
X30275Y-24225D01*
X29525Y-24225D01*
X29525Y-25025D01*
X30275Y-25025D01*
X30275Y-25025D01*
G37*
G54D15*
X30275Y-25025D02*
X30275Y-24225D01*
X29525Y-24225D01*
X29525Y-25025D01*
X30275Y-25025D01*
G54D10*
G36*
X31275Y-25025D02*
X31275Y-24225D01*
X30525Y-24225D01*
X30525Y-25025D01*
X31275Y-25025D01*
X31275Y-25025D01*
G37*
G54D15*
X31275Y-25025D02*
X31275Y-24225D01*
X30525Y-24225D01*
X30525Y-25025D01*
X31275Y-25025D01*
G54D10*
G36*
X29275Y-26175D02*
X29275Y-25375D01*
X28525Y-25375D01*
X28525Y-26175D01*
X29275Y-26175D01*
X29275Y-26175D01*
G37*
G54D15*
X29275Y-26175D02*
X29275Y-25375D01*
X28525Y-25375D01*
X28525Y-26175D01*
X29275Y-26175D01*
G54D10*
G36*
X30275Y-26175D02*
X30275Y-25375D01*
X29525Y-25375D01*
X29525Y-26175D01*
X30275Y-26175D01*
X30275Y-26175D01*
G37*
G54D15*
X30275Y-26175D02*
X30275Y-25375D01*
X29525Y-25375D01*
X29525Y-26175D01*
X30275Y-26175D01*
G54D10*
G36*
X31275Y-26175D02*
X31275Y-25375D01*
X30525Y-25375D01*
X30525Y-26175D01*
X31275Y-26175D01*
X31275Y-26175D01*
G37*
G54D15*
X31275Y-26175D02*
X31275Y-25375D01*
X30525Y-25375D01*
X30525Y-26175D01*
X31275Y-26175D01*
G54D10*
G36*
X25375Y-25025D02*
X25375Y-24225D01*
X24625Y-24225D01*
X24625Y-25025D01*
X25375Y-25025D01*
X25375Y-25025D01*
G37*
G54D15*
X25375Y-25025D02*
X25375Y-24225D01*
X24625Y-24225D01*
X24625Y-25025D01*
X25375Y-25025D01*
G54D10*
G36*
X26375Y-25025D02*
X26375Y-24225D01*
X25625Y-24225D01*
X25625Y-25025D01*
X26375Y-25025D01*
X26375Y-25025D01*
G37*
G54D15*
X26375Y-25025D02*
X26375Y-24225D01*
X25625Y-24225D01*
X25625Y-25025D01*
X26375Y-25025D01*
G54D10*
G36*
X27375Y-25025D02*
X27375Y-24225D01*
X26625Y-24225D01*
X26625Y-25025D01*
X27375Y-25025D01*
X27375Y-25025D01*
G37*
G54D15*
X27375Y-25025D02*
X27375Y-24225D01*
X26625Y-24225D01*
X26625Y-25025D01*
X27375Y-25025D01*
G54D10*
G36*
X25375Y-26175D02*
X25375Y-25375D01*
X24625Y-25375D01*
X24625Y-26175D01*
X25375Y-26175D01*
X25375Y-26175D01*
G37*
G54D15*
X25375Y-26175D02*
X25375Y-25375D01*
X24625Y-25375D01*
X24625Y-26175D01*
X25375Y-26175D01*
G54D10*
G36*
X26375Y-26175D02*
X26375Y-25375D01*
X25625Y-25375D01*
X25625Y-26175D01*
X26375Y-26175D01*
X26375Y-26175D01*
G37*
G54D15*
X26375Y-26175D02*
X26375Y-25375D01*
X25625Y-25375D01*
X25625Y-26175D01*
X26375Y-26175D01*
G54D10*
G36*
X27375Y-26175D02*
X27375Y-25375D01*
X26625Y-25375D01*
X26625Y-26175D01*
X27375Y-26175D01*
X27375Y-26175D01*
G37*
G54D15*
X27375Y-26175D02*
X27375Y-25375D01*
X26625Y-25375D01*
X26625Y-26175D01*
X27375Y-26175D01*
G54D10*
G36*
X21475Y-25025D02*
X21475Y-24225D01*
X20725Y-24225D01*
X20725Y-25025D01*
X21475Y-25025D01*
X21475Y-25025D01*
G37*
G54D15*
X21475Y-25025D02*
X21475Y-24225D01*
X20725Y-24225D01*
X20725Y-25025D01*
X21475Y-25025D01*
G54D10*
G36*
X22475Y-25025D02*
X22475Y-24225D01*
X21725Y-24225D01*
X21725Y-25025D01*
X22475Y-25025D01*
X22475Y-25025D01*
G37*
G54D15*
X22475Y-25025D02*
X22475Y-24225D01*
X21725Y-24225D01*
X21725Y-25025D01*
X22475Y-25025D01*
G54D10*
G36*
X23475Y-25025D02*
X23475Y-24225D01*
X22725Y-24225D01*
X22725Y-25025D01*
X23475Y-25025D01*
X23475Y-25025D01*
G37*
G54D15*
X23475Y-25025D02*
X23475Y-24225D01*
X22725Y-24225D01*
X22725Y-25025D01*
X23475Y-25025D01*
G54D10*
G36*
X21475Y-26175D02*
X21475Y-25375D01*
X20725Y-25375D01*
X20725Y-26175D01*
X21475Y-26175D01*
X21475Y-26175D01*
G37*
G54D15*
X21475Y-26175D02*
X21475Y-25375D01*
X20725Y-25375D01*
X20725Y-26175D01*
X21475Y-26175D01*
G54D10*
G36*
X22475Y-26175D02*
X22475Y-25375D01*
X21725Y-25375D01*
X21725Y-26175D01*
X22475Y-26175D01*
X22475Y-26175D01*
G37*
G54D15*
X22475Y-26175D02*
X22475Y-25375D01*
X21725Y-25375D01*
X21725Y-26175D01*
X22475Y-26175D01*
G54D10*
G36*
X23475Y-26175D02*
X23475Y-25375D01*
X22725Y-25375D01*
X22725Y-26175D01*
X23475Y-26175D01*
X23475Y-26175D01*
G37*
G54D15*
X23475Y-26175D02*
X23475Y-25375D01*
X22725Y-25375D01*
X22725Y-26175D01*
X23475Y-26175D01*
G54D10*
G36*
X17575Y-25025D02*
X17575Y-24225D01*
X16825Y-24225D01*
X16825Y-25025D01*
X17575Y-25025D01*
X17575Y-25025D01*
G37*
G54D15*
X17575Y-25025D02*
X17575Y-24225D01*
X16825Y-24225D01*
X16825Y-25025D01*
X17575Y-25025D01*
G54D10*
G36*
X18575Y-25025D02*
X18575Y-24225D01*
X17825Y-24225D01*
X17825Y-25025D01*
X18575Y-25025D01*
X18575Y-25025D01*
G37*
G54D15*
X18575Y-25025D02*
X18575Y-24225D01*
X17825Y-24225D01*
X17825Y-25025D01*
X18575Y-25025D01*
G54D10*
G36*
X19575Y-25025D02*
X19575Y-24225D01*
X18825Y-24225D01*
X18825Y-25025D01*
X19575Y-25025D01*
X19575Y-25025D01*
G37*
G54D15*
X19575Y-25025D02*
X19575Y-24225D01*
X18825Y-24225D01*
X18825Y-25025D01*
X19575Y-25025D01*
G54D10*
G36*
X17575Y-26175D02*
X17575Y-25375D01*
X16825Y-25375D01*
X16825Y-26175D01*
X17575Y-26175D01*
X17575Y-26175D01*
G37*
G54D15*
X17575Y-26175D02*
X17575Y-25375D01*
X16825Y-25375D01*
X16825Y-26175D01*
X17575Y-26175D01*
G54D10*
G36*
X18575Y-26175D02*
X18575Y-25375D01*
X17825Y-25375D01*
X17825Y-26175D01*
X18575Y-26175D01*
X18575Y-26175D01*
G37*
G54D15*
X18575Y-26175D02*
X18575Y-25375D01*
X17825Y-25375D01*
X17825Y-26175D01*
X18575Y-26175D01*
G54D10*
G36*
X19575Y-26175D02*
X19575Y-25375D01*
X18825Y-25375D01*
X18825Y-26175D01*
X19575Y-26175D01*
X19575Y-26175D01*
G37*
G54D15*
X19575Y-26175D02*
X19575Y-25375D01*
X18825Y-25375D01*
X18825Y-26175D01*
X19575Y-26175D01*
G54D10*
G36*
X33175Y-25025D02*
X33175Y-24225D01*
X32425Y-24225D01*
X32425Y-25025D01*
X33175Y-25025D01*
X33175Y-25025D01*
G37*
G54D15*
X33175Y-25025D02*
X33175Y-24225D01*
X32425Y-24225D01*
X32425Y-25025D01*
X33175Y-25025D01*
G54D10*
G36*
X34175Y-25025D02*
X34175Y-24225D01*
X33425Y-24225D01*
X33425Y-25025D01*
X34175Y-25025D01*
X34175Y-25025D01*
G37*
G54D15*
X34175Y-25025D02*
X34175Y-24225D01*
X33425Y-24225D01*
X33425Y-25025D01*
X34175Y-25025D01*
G54D10*
G36*
X35175Y-25025D02*
X35175Y-24225D01*
X34425Y-24225D01*
X34425Y-25025D01*
X35175Y-25025D01*
X35175Y-25025D01*
G37*
G54D15*
X35175Y-25025D02*
X35175Y-24225D01*
X34425Y-24225D01*
X34425Y-25025D01*
X35175Y-25025D01*
G54D10*
G36*
X33175Y-26175D02*
X33175Y-25375D01*
X32425Y-25375D01*
X32425Y-26175D01*
X33175Y-26175D01*
X33175Y-26175D01*
G37*
G54D15*
X33175Y-26175D02*
X33175Y-25375D01*
X32425Y-25375D01*
X32425Y-26175D01*
X33175Y-26175D01*
G54D10*
G36*
X34175Y-26175D02*
X34175Y-25375D01*
X33425Y-25375D01*
X33425Y-26175D01*
X34175Y-26175D01*
X34175Y-26175D01*
G37*
G54D15*
X34175Y-26175D02*
X34175Y-25375D01*
X33425Y-25375D01*
X33425Y-26175D01*
X34175Y-26175D01*
G54D10*
G36*
X35175Y-26175D02*
X35175Y-25375D01*
X34425Y-25375D01*
X34425Y-26175D01*
X35175Y-26175D01*
X35175Y-26175D01*
G37*
G54D15*
X35175Y-26175D02*
X35175Y-25375D01*
X34425Y-25375D01*
X34425Y-26175D01*
X35175Y-26175D01*
G54D10*
G36*
X29275Y-20125D02*
X29275Y-19325D01*
X28525Y-19325D01*
X28525Y-20125D01*
X29275Y-20125D01*
X29275Y-20125D01*
G37*
G54D15*
X29275Y-20125D02*
X29275Y-19325D01*
X28525Y-19325D01*
X28525Y-20125D01*
X29275Y-20125D01*
G54D10*
G36*
X30275Y-20125D02*
X30275Y-19325D01*
X29525Y-19325D01*
X29525Y-20125D01*
X30275Y-20125D01*
X30275Y-20125D01*
G37*
G54D15*
X30275Y-20125D02*
X30275Y-19325D01*
X29525Y-19325D01*
X29525Y-20125D01*
X30275Y-20125D01*
G54D10*
G36*
X31275Y-20125D02*
X31275Y-19325D01*
X30525Y-19325D01*
X30525Y-20125D01*
X31275Y-20125D01*
X31275Y-20125D01*
G37*
G54D15*
X31275Y-20125D02*
X31275Y-19325D01*
X30525Y-19325D01*
X30525Y-20125D01*
X31275Y-20125D01*
G54D10*
G36*
X29275Y-21275D02*
X29275Y-20475D01*
X28525Y-20475D01*
X28525Y-21275D01*
X29275Y-21275D01*
X29275Y-21275D01*
G37*
G54D15*
X29275Y-21275D02*
X29275Y-20475D01*
X28525Y-20475D01*
X28525Y-21275D01*
X29275Y-21275D01*
G54D10*
G36*
X30275Y-21275D02*
X30275Y-20475D01*
X29525Y-20475D01*
X29525Y-21275D01*
X30275Y-21275D01*
X30275Y-21275D01*
G37*
G54D15*
X30275Y-21275D02*
X30275Y-20475D01*
X29525Y-20475D01*
X29525Y-21275D01*
X30275Y-21275D01*
G54D10*
G36*
X31275Y-21275D02*
X31275Y-20475D01*
X30525Y-20475D01*
X30525Y-21275D01*
X31275Y-21275D01*
X31275Y-21275D01*
G37*
G54D15*
X31275Y-21275D02*
X31275Y-20475D01*
X30525Y-20475D01*
X30525Y-21275D01*
X31275Y-21275D01*
G54D10*
G36*
X25375Y-20125D02*
X25375Y-19325D01*
X24625Y-19325D01*
X24625Y-20125D01*
X25375Y-20125D01*
X25375Y-20125D01*
G37*
G54D15*
X25375Y-20125D02*
X25375Y-19325D01*
X24625Y-19325D01*
X24625Y-20125D01*
X25375Y-20125D01*
G54D10*
G36*
X26375Y-20125D02*
X26375Y-19325D01*
X25625Y-19325D01*
X25625Y-20125D01*
X26375Y-20125D01*
X26375Y-20125D01*
G37*
G54D15*
X26375Y-20125D02*
X26375Y-19325D01*
X25625Y-19325D01*
X25625Y-20125D01*
X26375Y-20125D01*
G54D10*
G36*
X27375Y-20125D02*
X27375Y-19325D01*
X26625Y-19325D01*
X26625Y-20125D01*
X27375Y-20125D01*
X27375Y-20125D01*
G37*
G54D15*
X27375Y-20125D02*
X27375Y-19325D01*
X26625Y-19325D01*
X26625Y-20125D01*
X27375Y-20125D01*
G54D10*
G36*
X25375Y-21275D02*
X25375Y-20475D01*
X24625Y-20475D01*
X24625Y-21275D01*
X25375Y-21275D01*
X25375Y-21275D01*
G37*
G54D15*
X25375Y-21275D02*
X25375Y-20475D01*
X24625Y-20475D01*
X24625Y-21275D01*
X25375Y-21275D01*
G54D10*
G36*
X26375Y-21275D02*
X26375Y-20475D01*
X25625Y-20475D01*
X25625Y-21275D01*
X26375Y-21275D01*
X26375Y-21275D01*
G37*
G54D15*
X26375Y-21275D02*
X26375Y-20475D01*
X25625Y-20475D01*
X25625Y-21275D01*
X26375Y-21275D01*
G54D10*
G36*
X27375Y-21275D02*
X27375Y-20475D01*
X26625Y-20475D01*
X26625Y-21275D01*
X27375Y-21275D01*
X27375Y-21275D01*
G37*
G54D15*
X27375Y-21275D02*
X27375Y-20475D01*
X26625Y-20475D01*
X26625Y-21275D01*
X27375Y-21275D01*
G54D10*
G36*
X21475Y-20125D02*
X21475Y-19325D01*
X20725Y-19325D01*
X20725Y-20125D01*
X21475Y-20125D01*
X21475Y-20125D01*
G37*
G54D15*
X21475Y-20125D02*
X21475Y-19325D01*
X20725Y-19325D01*
X20725Y-20125D01*
X21475Y-20125D01*
G54D10*
G36*
X22475Y-20125D02*
X22475Y-19325D01*
X21725Y-19325D01*
X21725Y-20125D01*
X22475Y-20125D01*
X22475Y-20125D01*
G37*
G54D15*
X22475Y-20125D02*
X22475Y-19325D01*
X21725Y-19325D01*
X21725Y-20125D01*
X22475Y-20125D01*
G54D10*
G36*
X23475Y-20125D02*
X23475Y-19325D01*
X22725Y-19325D01*
X22725Y-20125D01*
X23475Y-20125D01*
X23475Y-20125D01*
G37*
G54D15*
X23475Y-20125D02*
X23475Y-19325D01*
X22725Y-19325D01*
X22725Y-20125D01*
X23475Y-20125D01*
G54D10*
G36*
X21475Y-21275D02*
X21475Y-20475D01*
X20725Y-20475D01*
X20725Y-21275D01*
X21475Y-21275D01*
X21475Y-21275D01*
G37*
G54D15*
X21475Y-21275D02*
X21475Y-20475D01*
X20725Y-20475D01*
X20725Y-21275D01*
X21475Y-21275D01*
G54D10*
G36*
X22475Y-21275D02*
X22475Y-20475D01*
X21725Y-20475D01*
X21725Y-21275D01*
X22475Y-21275D01*
X22475Y-21275D01*
G37*
G54D15*
X22475Y-21275D02*
X22475Y-20475D01*
X21725Y-20475D01*
X21725Y-21275D01*
X22475Y-21275D01*
G54D10*
G36*
X23475Y-21275D02*
X23475Y-20475D01*
X22725Y-20475D01*
X22725Y-21275D01*
X23475Y-21275D01*
X23475Y-21275D01*
G37*
G54D15*
X23475Y-21275D02*
X23475Y-20475D01*
X22725Y-20475D01*
X22725Y-21275D01*
X23475Y-21275D01*
G54D10*
G36*
X17575Y-20125D02*
X17575Y-19325D01*
X16825Y-19325D01*
X16825Y-20125D01*
X17575Y-20125D01*
X17575Y-20125D01*
G37*
G54D15*
X17575Y-20125D02*
X17575Y-19325D01*
X16825Y-19325D01*
X16825Y-20125D01*
X17575Y-20125D01*
G54D10*
G36*
X18575Y-20125D02*
X18575Y-19325D01*
X17825Y-19325D01*
X17825Y-20125D01*
X18575Y-20125D01*
X18575Y-20125D01*
G37*
G54D15*
X18575Y-20125D02*
X18575Y-19325D01*
X17825Y-19325D01*
X17825Y-20125D01*
X18575Y-20125D01*
G54D10*
G36*
X19575Y-20125D02*
X19575Y-19325D01*
X18825Y-19325D01*
X18825Y-20125D01*
X19575Y-20125D01*
X19575Y-20125D01*
G37*
G54D15*
X19575Y-20125D02*
X19575Y-19325D01*
X18825Y-19325D01*
X18825Y-20125D01*
X19575Y-20125D01*
G54D10*
G36*
X17575Y-21275D02*
X17575Y-20475D01*
X16825Y-20475D01*
X16825Y-21275D01*
X17575Y-21275D01*
X17575Y-21275D01*
G37*
G54D15*
X17575Y-21275D02*
X17575Y-20475D01*
X16825Y-20475D01*
X16825Y-21275D01*
X17575Y-21275D01*
G54D10*
G36*
X18575Y-21275D02*
X18575Y-20475D01*
X17825Y-20475D01*
X17825Y-21275D01*
X18575Y-21275D01*
X18575Y-21275D01*
G37*
G54D15*
X18575Y-21275D02*
X18575Y-20475D01*
X17825Y-20475D01*
X17825Y-21275D01*
X18575Y-21275D01*
G54D10*
G36*
X19575Y-21275D02*
X19575Y-20475D01*
X18825Y-20475D01*
X18825Y-21275D01*
X19575Y-21275D01*
X19575Y-21275D01*
G37*
G54D15*
X19575Y-21275D02*
X19575Y-20475D01*
X18825Y-20475D01*
X18825Y-21275D01*
X19575Y-21275D01*
G54D10*
G36*
X33175Y-20125D02*
X33175Y-19325D01*
X32425Y-19325D01*
X32425Y-20125D01*
X33175Y-20125D01*
X33175Y-20125D01*
G37*
G54D15*
X33175Y-20125D02*
X33175Y-19325D01*
X32425Y-19325D01*
X32425Y-20125D01*
X33175Y-20125D01*
G54D10*
G36*
X34175Y-20125D02*
X34175Y-19325D01*
X33425Y-19325D01*
X33425Y-20125D01*
X34175Y-20125D01*
X34175Y-20125D01*
G37*
G54D15*
X34175Y-20125D02*
X34175Y-19325D01*
X33425Y-19325D01*
X33425Y-20125D01*
X34175Y-20125D01*
G54D10*
G36*
X35175Y-20125D02*
X35175Y-19325D01*
X34425Y-19325D01*
X34425Y-20125D01*
X35175Y-20125D01*
X35175Y-20125D01*
G37*
G54D15*
X35175Y-20125D02*
X35175Y-19325D01*
X34425Y-19325D01*
X34425Y-20125D01*
X35175Y-20125D01*
G54D10*
G36*
X33175Y-21275D02*
X33175Y-20475D01*
X32425Y-20475D01*
X32425Y-21275D01*
X33175Y-21275D01*
X33175Y-21275D01*
G37*
G54D15*
X33175Y-21275D02*
X33175Y-20475D01*
X32425Y-20475D01*
X32425Y-21275D01*
X33175Y-21275D01*
G54D10*
G36*
X34175Y-21275D02*
X34175Y-20475D01*
X33425Y-20475D01*
X33425Y-21275D01*
X34175Y-21275D01*
X34175Y-21275D01*
G37*
G54D15*
X34175Y-21275D02*
X34175Y-20475D01*
X33425Y-20475D01*
X33425Y-21275D01*
X34175Y-21275D01*
G54D10*
G36*
X35175Y-21275D02*
X35175Y-20475D01*
X34425Y-20475D01*
X34425Y-21275D01*
X35175Y-21275D01*
X35175Y-21275D01*
G37*
G54D15*
X35175Y-21275D02*
X35175Y-20475D01*
X34425Y-20475D01*
X34425Y-21275D01*
X35175Y-21275D01*
G54D10*
G36*
X29275Y-15225D02*
X29275Y-14425D01*
X28525Y-14425D01*
X28525Y-15225D01*
X29275Y-15225D01*
X29275Y-15225D01*
G37*
G54D15*
X29275Y-15225D02*
X29275Y-14425D01*
X28525Y-14425D01*
X28525Y-15225D01*
X29275Y-15225D01*
G54D10*
G36*
X30275Y-15225D02*
X30275Y-14425D01*
X29525Y-14425D01*
X29525Y-15225D01*
X30275Y-15225D01*
X30275Y-15225D01*
G37*
G54D15*
X30275Y-15225D02*
X30275Y-14425D01*
X29525Y-14425D01*
X29525Y-15225D01*
X30275Y-15225D01*
G54D10*
G36*
X31275Y-15225D02*
X31275Y-14425D01*
X30525Y-14425D01*
X30525Y-15225D01*
X31275Y-15225D01*
X31275Y-15225D01*
G37*
G54D15*
X31275Y-15225D02*
X31275Y-14425D01*
X30525Y-14425D01*
X30525Y-15225D01*
X31275Y-15225D01*
G54D10*
G36*
X29275Y-16375D02*
X29275Y-15575D01*
X28525Y-15575D01*
X28525Y-16375D01*
X29275Y-16375D01*
X29275Y-16375D01*
G37*
G54D15*
X29275Y-16375D02*
X29275Y-15575D01*
X28525Y-15575D01*
X28525Y-16375D01*
X29275Y-16375D01*
G54D10*
G36*
X30275Y-16375D02*
X30275Y-15575D01*
X29525Y-15575D01*
X29525Y-16375D01*
X30275Y-16375D01*
X30275Y-16375D01*
G37*
G54D15*
X30275Y-16375D02*
X30275Y-15575D01*
X29525Y-15575D01*
X29525Y-16375D01*
X30275Y-16375D01*
G54D10*
G36*
X31275Y-16375D02*
X31275Y-15575D01*
X30525Y-15575D01*
X30525Y-16375D01*
X31275Y-16375D01*
X31275Y-16375D01*
G37*
G54D15*
X31275Y-16375D02*
X31275Y-15575D01*
X30525Y-15575D01*
X30525Y-16375D01*
X31275Y-16375D01*
G54D10*
G36*
X25375Y-15225D02*
X25375Y-14425D01*
X24625Y-14425D01*
X24625Y-15225D01*
X25375Y-15225D01*
X25375Y-15225D01*
G37*
G54D15*
X25375Y-15225D02*
X25375Y-14425D01*
X24625Y-14425D01*
X24625Y-15225D01*
X25375Y-15225D01*
G54D10*
G36*
X26375Y-15225D02*
X26375Y-14425D01*
X25625Y-14425D01*
X25625Y-15225D01*
X26375Y-15225D01*
X26375Y-15225D01*
G37*
G54D15*
X26375Y-15225D02*
X26375Y-14425D01*
X25625Y-14425D01*
X25625Y-15225D01*
X26375Y-15225D01*
G54D10*
G36*
X27375Y-15225D02*
X27375Y-14425D01*
X26625Y-14425D01*
X26625Y-15225D01*
X27375Y-15225D01*
X27375Y-15225D01*
G37*
G54D15*
X27375Y-15225D02*
X27375Y-14425D01*
X26625Y-14425D01*
X26625Y-15225D01*
X27375Y-15225D01*
G54D10*
G36*
X25375Y-16375D02*
X25375Y-15575D01*
X24625Y-15575D01*
X24625Y-16375D01*
X25375Y-16375D01*
X25375Y-16375D01*
G37*
G54D15*
X25375Y-16375D02*
X25375Y-15575D01*
X24625Y-15575D01*
X24625Y-16375D01*
X25375Y-16375D01*
G54D10*
G36*
X26375Y-16375D02*
X26375Y-15575D01*
X25625Y-15575D01*
X25625Y-16375D01*
X26375Y-16375D01*
X26375Y-16375D01*
G37*
G54D15*
X26375Y-16375D02*
X26375Y-15575D01*
X25625Y-15575D01*
X25625Y-16375D01*
X26375Y-16375D01*
G54D10*
G36*
X27375Y-16375D02*
X27375Y-15575D01*
X26625Y-15575D01*
X26625Y-16375D01*
X27375Y-16375D01*
X27375Y-16375D01*
G37*
G54D15*
X27375Y-16375D02*
X27375Y-15575D01*
X26625Y-15575D01*
X26625Y-16375D01*
X27375Y-16375D01*
G54D10*
G36*
X21475Y-15225D02*
X21475Y-14425D01*
X20725Y-14425D01*
X20725Y-15225D01*
X21475Y-15225D01*
X21475Y-15225D01*
G37*
G54D15*
X21475Y-15225D02*
X21475Y-14425D01*
X20725Y-14425D01*
X20725Y-15225D01*
X21475Y-15225D01*
G54D10*
G36*
X22475Y-15225D02*
X22475Y-14425D01*
X21725Y-14425D01*
X21725Y-15225D01*
X22475Y-15225D01*
X22475Y-15225D01*
G37*
G54D15*
X22475Y-15225D02*
X22475Y-14425D01*
X21725Y-14425D01*
X21725Y-15225D01*
X22475Y-15225D01*
G54D10*
G36*
X23475Y-15225D02*
X23475Y-14425D01*
X22725Y-14425D01*
X22725Y-15225D01*
X23475Y-15225D01*
X23475Y-15225D01*
G37*
G54D15*
X23475Y-15225D02*
X23475Y-14425D01*
X22725Y-14425D01*
X22725Y-15225D01*
X23475Y-15225D01*
G54D10*
G36*
X21475Y-16375D02*
X21475Y-15575D01*
X20725Y-15575D01*
X20725Y-16375D01*
X21475Y-16375D01*
X21475Y-16375D01*
G37*
G54D15*
X21475Y-16375D02*
X21475Y-15575D01*
X20725Y-15575D01*
X20725Y-16375D01*
X21475Y-16375D01*
G54D10*
G36*
X22475Y-16375D02*
X22475Y-15575D01*
X21725Y-15575D01*
X21725Y-16375D01*
X22475Y-16375D01*
X22475Y-16375D01*
G37*
G54D15*
X22475Y-16375D02*
X22475Y-15575D01*
X21725Y-15575D01*
X21725Y-16375D01*
X22475Y-16375D01*
G54D10*
G36*
X23475Y-16375D02*
X23475Y-15575D01*
X22725Y-15575D01*
X22725Y-16375D01*
X23475Y-16375D01*
X23475Y-16375D01*
G37*
G54D15*
X23475Y-16375D02*
X23475Y-15575D01*
X22725Y-15575D01*
X22725Y-16375D01*
X23475Y-16375D01*
G54D10*
G36*
X17575Y-15225D02*
X17575Y-14425D01*
X16825Y-14425D01*
X16825Y-15225D01*
X17575Y-15225D01*
X17575Y-15225D01*
G37*
G54D15*
X17575Y-15225D02*
X17575Y-14425D01*
X16825Y-14425D01*
X16825Y-15225D01*
X17575Y-15225D01*
G54D10*
G36*
X18575Y-15225D02*
X18575Y-14425D01*
X17825Y-14425D01*
X17825Y-15225D01*
X18575Y-15225D01*
X18575Y-15225D01*
G37*
G54D15*
X18575Y-15225D02*
X18575Y-14425D01*
X17825Y-14425D01*
X17825Y-15225D01*
X18575Y-15225D01*
G54D10*
G36*
X19575Y-15225D02*
X19575Y-14425D01*
X18825Y-14425D01*
X18825Y-15225D01*
X19575Y-15225D01*
X19575Y-15225D01*
G37*
G54D15*
X19575Y-15225D02*
X19575Y-14425D01*
X18825Y-14425D01*
X18825Y-15225D01*
X19575Y-15225D01*
G54D10*
G36*
X17575Y-16375D02*
X17575Y-15575D01*
X16825Y-15575D01*
X16825Y-16375D01*
X17575Y-16375D01*
X17575Y-16375D01*
G37*
G54D15*
X17575Y-16375D02*
X17575Y-15575D01*
X16825Y-15575D01*
X16825Y-16375D01*
X17575Y-16375D01*
G54D10*
G36*
X18575Y-16375D02*
X18575Y-15575D01*
X17825Y-15575D01*
X17825Y-16375D01*
X18575Y-16375D01*
X18575Y-16375D01*
G37*
G54D15*
X18575Y-16375D02*
X18575Y-15575D01*
X17825Y-15575D01*
X17825Y-16375D01*
X18575Y-16375D01*
G54D10*
G36*
X19575Y-16375D02*
X19575Y-15575D01*
X18825Y-15575D01*
X18825Y-16375D01*
X19575Y-16375D01*
X19575Y-16375D01*
G37*
G54D15*
X19575Y-16375D02*
X19575Y-15575D01*
X18825Y-15575D01*
X18825Y-16375D01*
X19575Y-16375D01*
G54D10*
G36*
X33175Y-15225D02*
X33175Y-14425D01*
X32425Y-14425D01*
X32425Y-15225D01*
X33175Y-15225D01*
X33175Y-15225D01*
G37*
G54D15*
X33175Y-15225D02*
X33175Y-14425D01*
X32425Y-14425D01*
X32425Y-15225D01*
X33175Y-15225D01*
G54D10*
G36*
X34175Y-15225D02*
X34175Y-14425D01*
X33425Y-14425D01*
X33425Y-15225D01*
X34175Y-15225D01*
X34175Y-15225D01*
G37*
G54D15*
X34175Y-15225D02*
X34175Y-14425D01*
X33425Y-14425D01*
X33425Y-15225D01*
X34175Y-15225D01*
G54D10*
G36*
X35175Y-15225D02*
X35175Y-14425D01*
X34425Y-14425D01*
X34425Y-15225D01*
X35175Y-15225D01*
X35175Y-15225D01*
G37*
G54D15*
X35175Y-15225D02*
X35175Y-14425D01*
X34425Y-14425D01*
X34425Y-15225D01*
X35175Y-15225D01*
G54D10*
G36*
X33175Y-16375D02*
X33175Y-15575D01*
X32425Y-15575D01*
X32425Y-16375D01*
X33175Y-16375D01*
X33175Y-16375D01*
G37*
G54D15*
X33175Y-16375D02*
X33175Y-15575D01*
X32425Y-15575D01*
X32425Y-16375D01*
X33175Y-16375D01*
G54D10*
G36*
X34175Y-16375D02*
X34175Y-15575D01*
X33425Y-15575D01*
X33425Y-16375D01*
X34175Y-16375D01*
X34175Y-16375D01*
G37*
G54D15*
X34175Y-16375D02*
X34175Y-15575D01*
X33425Y-15575D01*
X33425Y-16375D01*
X34175Y-16375D01*
G54D10*
G36*
X35175Y-16375D02*
X35175Y-15575D01*
X34425Y-15575D01*
X34425Y-16375D01*
X35175Y-16375D01*
X35175Y-16375D01*
G37*
G54D15*
X35175Y-16375D02*
X35175Y-15575D01*
X34425Y-15575D01*
X34425Y-16375D01*
X35175Y-16375D01*
M02*
