G04 (created by PCBNEW (2013-04-28 BZR 4117)-testing) date Mon 29 Apr 2013 06:53:22 PM CEST*
%MOIN*%
G04 Gerber Fmt 3.4, Leading zero omitted, Abs format*
%FSLAX34Y34*%
G01*
G70*
G90*
G04 APERTURE LIST*
%ADD10C,2.3622e-06*%
%ADD11R,0.059X0.0511*%
%ADD12R,0.0216X0.0472*%
%ADD13R,0.0709X0.0709*%
%ADD14C,0.0709*%
G04 APERTURE END LIST*
G54D10*
G54D11*
X28650Y-20674D03*
X28650Y-19926D03*
X31150Y-20674D03*
X31150Y-19926D03*
G54D12*
X29526Y-20811D03*
X29900Y-20811D03*
X30274Y-20811D03*
X30274Y-19789D03*
X29900Y-19789D03*
X29526Y-19789D03*
G54D13*
X28900Y-21800D03*
G54D14*
X29900Y-21800D03*
X30900Y-21800D03*
X30900Y-18800D03*
X29900Y-18800D03*
X28900Y-18800D03*
G54D13*
X25000Y-21800D03*
G54D14*
X26000Y-21800D03*
X27000Y-21800D03*
X27000Y-18800D03*
X26000Y-18800D03*
X25000Y-18800D03*
G54D12*
X25626Y-20811D03*
X26000Y-20811D03*
X26374Y-20811D03*
X26374Y-19789D03*
X26000Y-19789D03*
X25626Y-19789D03*
G54D11*
X27250Y-20674D03*
X27250Y-19926D03*
X24750Y-20674D03*
X24750Y-19926D03*
X16950Y-20674D03*
X16950Y-19926D03*
X19450Y-20674D03*
X19450Y-19926D03*
G54D12*
X17826Y-20811D03*
X18200Y-20811D03*
X18574Y-20811D03*
X18574Y-19789D03*
X18200Y-19789D03*
X17826Y-19789D03*
G54D13*
X17200Y-21800D03*
G54D14*
X18200Y-21800D03*
X19200Y-21800D03*
X19200Y-18800D03*
X18200Y-18800D03*
X17200Y-18800D03*
G54D13*
X21100Y-21800D03*
G54D14*
X22100Y-21800D03*
X23100Y-21800D03*
X23100Y-18800D03*
X22100Y-18800D03*
X21100Y-18800D03*
G54D12*
X21726Y-20811D03*
X22100Y-20811D03*
X22474Y-20811D03*
X22474Y-19789D03*
X22100Y-19789D03*
X21726Y-19789D03*
G54D11*
X23350Y-20674D03*
X23350Y-19926D03*
X20850Y-20674D03*
X20850Y-19926D03*
G54D13*
X32800Y-21800D03*
G54D14*
X33800Y-21800D03*
X34800Y-21800D03*
X34800Y-18800D03*
X33800Y-18800D03*
X32800Y-18800D03*
G54D12*
X33426Y-20811D03*
X33800Y-20811D03*
X34174Y-20811D03*
X34174Y-19789D03*
X33800Y-19789D03*
X33426Y-19789D03*
G54D11*
X35050Y-20674D03*
X35050Y-19926D03*
X32550Y-20674D03*
X32550Y-19926D03*
X32550Y-15774D03*
X32550Y-15026D03*
X35050Y-15774D03*
X35050Y-15026D03*
G54D12*
X33426Y-15911D03*
X33800Y-15911D03*
X34174Y-15911D03*
X34174Y-14889D03*
X33800Y-14889D03*
X33426Y-14889D03*
G54D13*
X32800Y-16900D03*
G54D14*
X33800Y-16900D03*
X34800Y-16900D03*
X34800Y-13900D03*
X33800Y-13900D03*
X32800Y-13900D03*
G54D11*
X20850Y-15774D03*
X20850Y-15026D03*
X23350Y-15774D03*
X23350Y-15026D03*
G54D12*
X21726Y-15911D03*
X22100Y-15911D03*
X22474Y-15911D03*
X22474Y-14889D03*
X22100Y-14889D03*
X21726Y-14889D03*
G54D13*
X21100Y-16900D03*
G54D14*
X22100Y-16900D03*
X23100Y-16900D03*
X23100Y-13900D03*
X22100Y-13900D03*
X21100Y-13900D03*
G54D13*
X17200Y-16900D03*
G54D14*
X18200Y-16900D03*
X19200Y-16900D03*
X19200Y-13900D03*
X18200Y-13900D03*
X17200Y-13900D03*
G54D12*
X17826Y-15911D03*
X18200Y-15911D03*
X18574Y-15911D03*
X18574Y-14889D03*
X18200Y-14889D03*
X17826Y-14889D03*
G54D11*
X19450Y-15774D03*
X19450Y-15026D03*
X16950Y-15774D03*
X16950Y-15026D03*
X24750Y-15774D03*
X24750Y-15026D03*
X27250Y-15774D03*
X27250Y-15026D03*
G54D12*
X25626Y-15911D03*
X26000Y-15911D03*
X26374Y-15911D03*
X26374Y-14889D03*
X26000Y-14889D03*
X25626Y-14889D03*
G54D13*
X25000Y-16900D03*
G54D14*
X26000Y-16900D03*
X27000Y-16900D03*
X27000Y-13900D03*
X26000Y-13900D03*
X25000Y-13900D03*
G54D13*
X28900Y-16900D03*
G54D14*
X29900Y-16900D03*
X30900Y-16900D03*
X30900Y-13900D03*
X29900Y-13900D03*
X28900Y-13900D03*
G54D12*
X29526Y-15911D03*
X29900Y-15911D03*
X30274Y-15911D03*
X30274Y-14889D03*
X29900Y-14889D03*
X29526Y-14889D03*
G54D11*
X31150Y-15774D03*
X31150Y-15026D03*
X28650Y-15774D03*
X28650Y-15026D03*
X28650Y-25574D03*
X28650Y-24826D03*
X31150Y-25574D03*
X31150Y-24826D03*
G54D12*
X29526Y-25711D03*
X29900Y-25711D03*
X30274Y-25711D03*
X30274Y-24689D03*
X29900Y-24689D03*
X29526Y-24689D03*
G54D13*
X28900Y-26700D03*
G54D14*
X29900Y-26700D03*
X30900Y-26700D03*
X30900Y-23700D03*
X29900Y-23700D03*
X28900Y-23700D03*
G54D13*
X25000Y-26700D03*
G54D14*
X26000Y-26700D03*
X27000Y-26700D03*
X27000Y-23700D03*
X26000Y-23700D03*
X25000Y-23700D03*
G54D12*
X25626Y-25711D03*
X26000Y-25711D03*
X26374Y-25711D03*
X26374Y-24689D03*
X26000Y-24689D03*
X25626Y-24689D03*
G54D11*
X27250Y-25574D03*
X27250Y-24826D03*
X24750Y-25574D03*
X24750Y-24826D03*
X16950Y-25574D03*
X16950Y-24826D03*
X19450Y-25574D03*
X19450Y-24826D03*
G54D12*
X17826Y-25711D03*
X18200Y-25711D03*
X18574Y-25711D03*
X18574Y-24689D03*
X18200Y-24689D03*
X17826Y-24689D03*
G54D13*
X17200Y-26700D03*
G54D14*
X18200Y-26700D03*
X19200Y-26700D03*
X19200Y-23700D03*
X18200Y-23700D03*
X17200Y-23700D03*
G54D13*
X21100Y-26700D03*
G54D14*
X22100Y-26700D03*
X23100Y-26700D03*
X23100Y-23700D03*
X22100Y-23700D03*
X21100Y-23700D03*
G54D12*
X21726Y-25711D03*
X22100Y-25711D03*
X22474Y-25711D03*
X22474Y-24689D03*
X22100Y-24689D03*
X21726Y-24689D03*
G54D11*
X23350Y-25574D03*
X23350Y-24826D03*
X20850Y-25574D03*
X20850Y-24826D03*
G54D13*
X32800Y-26700D03*
G54D14*
X33800Y-26700D03*
X34800Y-26700D03*
X34800Y-23700D03*
X33800Y-23700D03*
X32800Y-23700D03*
G54D12*
X33426Y-25711D03*
X33800Y-25711D03*
X34174Y-25711D03*
X34174Y-24689D03*
X33800Y-24689D03*
X33426Y-24689D03*
G54D11*
X35050Y-25574D03*
X35050Y-24826D03*
X32550Y-25574D03*
X32550Y-24826D03*
X32550Y-30474D03*
X32550Y-29726D03*
X35050Y-30474D03*
X35050Y-29726D03*
G54D12*
X33426Y-30611D03*
X33800Y-30611D03*
X34174Y-30611D03*
X34174Y-29589D03*
X33800Y-29589D03*
X33426Y-29589D03*
G54D13*
X32800Y-31600D03*
G54D14*
X33800Y-31600D03*
X34800Y-31600D03*
X34800Y-28600D03*
X33800Y-28600D03*
X32800Y-28600D03*
G54D11*
X20850Y-30474D03*
X20850Y-29726D03*
X23350Y-30474D03*
X23350Y-29726D03*
G54D12*
X21726Y-30611D03*
X22100Y-30611D03*
X22474Y-30611D03*
X22474Y-29589D03*
X22100Y-29589D03*
X21726Y-29589D03*
G54D13*
X21100Y-31600D03*
G54D14*
X22100Y-31600D03*
X23100Y-31600D03*
X23100Y-28600D03*
X22100Y-28600D03*
X21100Y-28600D03*
G54D13*
X17200Y-31600D03*
G54D14*
X18200Y-31600D03*
X19200Y-31600D03*
X19200Y-28600D03*
X18200Y-28600D03*
X17200Y-28600D03*
G54D12*
X17826Y-30611D03*
X18200Y-30611D03*
X18574Y-30611D03*
X18574Y-29589D03*
X18200Y-29589D03*
X17826Y-29589D03*
G54D11*
X19450Y-30474D03*
X19450Y-29726D03*
X16950Y-30474D03*
X16950Y-29726D03*
X24750Y-30474D03*
X24750Y-29726D03*
X27250Y-30474D03*
X27250Y-29726D03*
G54D12*
X25626Y-30611D03*
X26000Y-30611D03*
X26374Y-30611D03*
X26374Y-29589D03*
X26000Y-29589D03*
X25626Y-29589D03*
G54D13*
X25000Y-31600D03*
G54D14*
X26000Y-31600D03*
X27000Y-31600D03*
X27000Y-28600D03*
X26000Y-28600D03*
X25000Y-28600D03*
G54D13*
X28900Y-31600D03*
G54D14*
X29900Y-31600D03*
X30900Y-31600D03*
X30900Y-28600D03*
X29900Y-28600D03*
X28900Y-28600D03*
G54D12*
X29526Y-30611D03*
X29900Y-30611D03*
X30274Y-30611D03*
X30274Y-29589D03*
X29900Y-29589D03*
X29526Y-29589D03*
G54D11*
X31150Y-30474D03*
X31150Y-29726D03*
X28650Y-30474D03*
X28650Y-29726D03*
M02*
