G04 (created by PCBNEW (2013-04-28 BZR 4117)-testing) date Mon 29 Apr 2013 06:53:23 PM CEST*
%MOIN*%
G04 Gerber Fmt 3.4, Leading zero omitted, Abs format*
%FSLAX34Y34*%
G01*
G70*
G90*
G04 APERTURE LIST*
%ADD10C,2.3622e-06*%
%ADD11C,0.00787402*%
G04 APERTURE END LIST*
G54D10*
G54D11*
X17215Y-12084D02*
X17346Y-12478D01*
X17478Y-12084D01*
X17609Y-12328D02*
X17909Y-12328D01*
X18265Y-12459D02*
X18228Y-12478D01*
X18153Y-12478D01*
X18115Y-12459D01*
X18096Y-12440D01*
X18078Y-12403D01*
X18078Y-12290D01*
X18096Y-12253D01*
X18115Y-12234D01*
X18153Y-12215D01*
X18228Y-12215D01*
X18265Y-12234D01*
X18603Y-12215D02*
X18603Y-12478D01*
X18434Y-12215D02*
X18434Y-12421D01*
X18453Y-12459D01*
X18490Y-12478D01*
X18546Y-12478D01*
X18584Y-12459D01*
X18603Y-12440D01*
X18734Y-12215D02*
X18884Y-12215D01*
X18790Y-12084D02*
X18790Y-12421D01*
X18809Y-12459D01*
X18846Y-12478D01*
X18884Y-12478D01*
X31850Y-32550D02*
X31850Y-12950D01*
X27950Y-12950D02*
X27950Y-32550D01*
X24050Y-32550D02*
X24050Y-12950D01*
X20150Y-13000D02*
X20150Y-32550D01*
X16250Y-32550D02*
X16250Y-12950D01*
X35750Y-32550D02*
X35750Y-12950D01*
X16250Y-32550D02*
X35750Y-32550D01*
X16250Y-27650D02*
X35750Y-27650D01*
X16250Y-22750D02*
X35750Y-22750D01*
X16250Y-17850D02*
X35750Y-17850D01*
X16250Y-12950D02*
X35750Y-12950D01*
M02*
