G04 (created by PCBNEW-RS274X (2012-jan-04)-stable) date Wed 15 Aug 2012 11:50:26 AM CEST*
G01*
G70*
G90*
%MOIN*%
G04 Gerber Fmt 3.4, Leading zero omitted, Abs format*
%FSLAX34Y34*%
G04 APERTURE LIST*
%ADD10C,0.006000*%
%ADD11C,0.002600*%
%ADD12C,0.003000*%
%ADD13C,0.002000*%
%ADD14C,0.004000*%
%ADD15R,0.070900X0.070900*%
%ADD16C,0.070900*%
%ADD17R,0.021600X0.047200*%
%ADD18R,0.059000X0.051100*%
G04 APERTURE END LIST*
G54D10*
G54D11*
X61028Y-34090D02*
X61225Y-34090D01*
X61225Y-34090D02*
X61225Y-33834D01*
X61028Y-33834D02*
X61225Y-33834D01*
X61028Y-34090D02*
X61028Y-33834D01*
X61402Y-34090D02*
X61598Y-34090D01*
X61598Y-34090D02*
X61598Y-33834D01*
X61402Y-33834D02*
X61598Y-33834D01*
X61402Y-34090D02*
X61402Y-33834D01*
X61775Y-34090D02*
X61972Y-34090D01*
X61972Y-34090D02*
X61972Y-33834D01*
X61775Y-33834D02*
X61972Y-33834D01*
X61775Y-34090D02*
X61775Y-33834D01*
X61775Y-33166D02*
X61972Y-33166D01*
X61972Y-33166D02*
X61972Y-32910D01*
X61775Y-32910D02*
X61972Y-32910D01*
X61775Y-33166D02*
X61775Y-32910D01*
X61402Y-33166D02*
X61598Y-33166D01*
X61598Y-33166D02*
X61598Y-32910D01*
X61402Y-32910D02*
X61598Y-32910D01*
X61402Y-33166D02*
X61402Y-32910D01*
X61028Y-33166D02*
X61225Y-33166D01*
X61225Y-33166D02*
X61225Y-32910D01*
X61028Y-32910D02*
X61225Y-32910D01*
X61028Y-33166D02*
X61028Y-32910D01*
G54D10*
X62059Y-33182D02*
X62059Y-33818D01*
X62059Y-33818D02*
X60941Y-33818D01*
X60941Y-33818D02*
X60941Y-33182D01*
X60941Y-33182D02*
X62059Y-33182D01*
X61332Y-33818D02*
X61295Y-33818D01*
X61705Y-33818D02*
X61668Y-33818D01*
X60978Y-33818D02*
X60941Y-33818D01*
X62059Y-33818D02*
X62022Y-33818D01*
X62022Y-33182D02*
X62059Y-33182D01*
X60941Y-33182D02*
X60978Y-33182D01*
X61668Y-33182D02*
X61705Y-33182D01*
X61295Y-33182D02*
X61332Y-33182D01*
G54D12*
X61133Y-33677D02*
X61132Y-33682D01*
X61131Y-33686D01*
X61128Y-33691D01*
X61125Y-33695D01*
X61121Y-33698D01*
X61117Y-33700D01*
X61112Y-33702D01*
X61107Y-33702D01*
X61103Y-33702D01*
X61098Y-33701D01*
X61093Y-33698D01*
X61089Y-33695D01*
X61086Y-33691D01*
X61084Y-33687D01*
X61082Y-33682D01*
X61082Y-33677D01*
X61082Y-33673D01*
X61083Y-33668D01*
X61086Y-33663D01*
X61089Y-33659D01*
X61093Y-33656D01*
X61097Y-33654D01*
X61102Y-33652D01*
X61107Y-33652D01*
X61111Y-33652D01*
X61116Y-33653D01*
X61120Y-33656D01*
X61124Y-33659D01*
X61128Y-33663D01*
X61130Y-33667D01*
X61132Y-33672D01*
X61132Y-33677D01*
X61133Y-33677D01*
G54D11*
X63035Y-33929D02*
X63035Y-33634D01*
X63035Y-33634D02*
X62465Y-33634D01*
X62465Y-33929D02*
X62465Y-33634D01*
X63035Y-33929D02*
X62465Y-33929D01*
X63035Y-33360D02*
X63035Y-33065D01*
X63035Y-33065D02*
X62465Y-33065D01*
X62465Y-33360D02*
X62465Y-33065D01*
X63035Y-33360D02*
X62465Y-33360D01*
X62907Y-33539D02*
X62907Y-33461D01*
X62907Y-33461D02*
X62593Y-33461D01*
X62593Y-33539D02*
X62593Y-33461D01*
X62907Y-33539D02*
X62593Y-33539D01*
G54D13*
X62363Y-34276D02*
X62363Y-32724D01*
X63137Y-32724D02*
X63137Y-34276D01*
X63137Y-34276D02*
X62363Y-34276D01*
G54D14*
X62491Y-33650D02*
X62491Y-33350D01*
X63009Y-33640D02*
X63009Y-33350D01*
G54D13*
X62363Y-32724D02*
X63137Y-32724D01*
G54D11*
X60535Y-33929D02*
X60535Y-33634D01*
X60535Y-33634D02*
X59965Y-33634D01*
X59965Y-33929D02*
X59965Y-33634D01*
X60535Y-33929D02*
X59965Y-33929D01*
X60535Y-33360D02*
X60535Y-33065D01*
X60535Y-33065D02*
X59965Y-33065D01*
X59965Y-33360D02*
X59965Y-33065D01*
X60535Y-33360D02*
X59965Y-33360D01*
X60407Y-33539D02*
X60407Y-33461D01*
X60407Y-33461D02*
X60093Y-33461D01*
X60093Y-33539D02*
X60093Y-33461D01*
X60407Y-33539D02*
X60093Y-33539D01*
G54D13*
X59863Y-34276D02*
X59863Y-32724D01*
X60637Y-32724D02*
X60637Y-34276D01*
X60637Y-34276D02*
X59863Y-34276D01*
G54D14*
X59991Y-33650D02*
X59991Y-33350D01*
X60509Y-33640D02*
X60509Y-33350D01*
G54D13*
X59863Y-32724D02*
X60637Y-32724D01*
%LPC*%
G54D15*
X60500Y-35000D03*
G54D16*
X61500Y-35000D03*
X62500Y-35000D03*
X62500Y-32000D03*
X61500Y-32000D03*
X60500Y-32000D03*
G54D17*
X61126Y-34011D03*
X61500Y-34011D03*
X61874Y-34011D03*
X61874Y-32989D03*
X61500Y-32989D03*
X61126Y-32989D03*
G54D18*
X62750Y-33874D03*
X62750Y-33126D03*
X60250Y-33874D03*
X60250Y-33126D03*
M02*
