G04 (created by PCBNEW-RS274X (2012-jan-04)-stable) date Sat 04 Aug 2012 06:10:40 PM CEST*
G01*
G70*
G90*
%MOIN*%
G04 Gerber Fmt 3.4, Leading zero omitted, Abs format*
%FSLAX34Y34*%
G04 APERTURE LIST*
%ADD10C,0.006000*%
%ADD11C,0.000100*%
%ADD12R,0.065000X0.065000*%
%ADD13C,0.065000*%
%ADD14R,0.029500X0.039400*%
%ADD15R,0.068900X0.029500*%
%ADD16C,0.030000*%
%ADD17C,0.008000*%
%ADD18C,0.020000*%
G04 APERTURE END LIST*
G54D10*
G54D11*
G36*
X63196Y-31657D02*
X63195Y-31655D01*
X63192Y-31650D01*
X63187Y-31643D01*
X63181Y-31634D01*
X63175Y-31625D01*
X63171Y-31618D01*
X63167Y-31613D01*
X63166Y-31611D01*
X63167Y-31610D01*
X63169Y-31606D01*
X63172Y-31600D01*
X63174Y-31596D01*
X63176Y-31591D01*
X63176Y-31588D01*
X63176Y-31588D01*
X63172Y-31586D01*
X63164Y-31583D01*
X63155Y-31578D01*
X63144Y-31574D01*
X63132Y-31569D01*
X63120Y-31563D01*
X63108Y-31559D01*
X63097Y-31554D01*
X63089Y-31551D01*
X63083Y-31549D01*
X63080Y-31548D01*
X63080Y-31548D01*
X63077Y-31551D01*
X63074Y-31556D01*
X63065Y-31566D01*
X63052Y-31576D01*
X63038Y-31582D01*
X63022Y-31585D01*
X63007Y-31583D01*
X62993Y-31577D01*
X62980Y-31567D01*
X62971Y-31555D01*
X62965Y-31541D01*
X62963Y-31525D01*
X62964Y-31510D01*
X62970Y-31496D01*
X62980Y-31483D01*
X62986Y-31477D01*
X62999Y-31470D01*
X63013Y-31465D01*
X63016Y-31465D01*
X63032Y-31466D01*
X63046Y-31470D01*
X63059Y-31478D01*
X63070Y-31489D01*
X63071Y-31491D01*
X63075Y-31496D01*
X63078Y-31500D01*
X63080Y-31502D01*
X63127Y-31483D01*
X63135Y-31480D01*
X63148Y-31474D01*
X63159Y-31470D01*
X63168Y-31466D01*
X63174Y-31463D01*
X63176Y-31462D01*
X63176Y-31462D01*
X63176Y-31460D01*
X63175Y-31457D01*
X63172Y-31450D01*
X63170Y-31446D01*
X63167Y-31441D01*
X63166Y-31438D01*
X63167Y-31436D01*
X63170Y-31432D01*
X63175Y-31425D01*
X63181Y-31416D01*
X63186Y-31408D01*
X63191Y-31401D01*
X63195Y-31395D01*
X63196Y-31393D01*
X63196Y-31392D01*
X63195Y-31390D01*
X63191Y-31386D01*
X63185Y-31379D01*
X63176Y-31370D01*
X63175Y-31369D01*
X63167Y-31361D01*
X63161Y-31355D01*
X63156Y-31351D01*
X63154Y-31350D01*
X63154Y-31350D01*
X63152Y-31351D01*
X63146Y-31355D01*
X63139Y-31359D01*
X63130Y-31365D01*
X63107Y-31381D01*
X63086Y-31372D01*
X63079Y-31370D01*
X63071Y-31366D01*
X63066Y-31364D01*
X63063Y-31363D01*
X63062Y-31360D01*
X63061Y-31355D01*
X63059Y-31346D01*
X63057Y-31336D01*
X63056Y-31326D01*
X63054Y-31318D01*
X63053Y-31311D01*
X63052Y-31308D01*
X63052Y-31308D01*
X63050Y-31307D01*
X63047Y-31307D01*
X63042Y-31307D01*
X63034Y-31306D01*
X63022Y-31306D01*
X63020Y-31306D01*
X63009Y-31307D01*
X63000Y-31307D01*
X62995Y-31307D01*
X62992Y-31307D01*
X62992Y-31307D01*
X62992Y-31310D01*
X62990Y-31316D01*
X62989Y-31325D01*
X62987Y-31335D01*
X62986Y-31336D01*
X62984Y-31346D01*
X62983Y-31355D01*
X62981Y-31361D01*
X62980Y-31364D01*
X62980Y-31364D01*
X62976Y-31366D01*
X62969Y-31369D01*
X62961Y-31373D01*
X62953Y-31376D01*
X62946Y-31379D01*
X62940Y-31381D01*
X62938Y-31382D01*
X62938Y-31382D01*
X62935Y-31380D01*
X62930Y-31377D01*
X62923Y-31372D01*
X62914Y-31365D01*
X62913Y-31365D01*
X62904Y-31359D01*
X62897Y-31354D01*
X62892Y-31351D01*
X62889Y-31350D01*
X62889Y-31350D01*
X62887Y-31352D01*
X62882Y-31356D01*
X62875Y-31363D01*
X62867Y-31370D01*
X62865Y-31373D01*
X62856Y-31381D01*
X62851Y-31387D01*
X62848Y-31391D01*
X62847Y-31393D01*
X62847Y-31393D01*
X62849Y-31395D01*
X62853Y-31401D01*
X62858Y-31408D01*
X62864Y-31417D01*
X62864Y-31418D01*
X62870Y-31427D01*
X62875Y-31434D01*
X62879Y-31439D01*
X62880Y-31441D01*
X62880Y-31442D01*
X62879Y-31445D01*
X62877Y-31452D01*
X62874Y-31459D01*
X62870Y-31467D01*
X62867Y-31475D01*
X62865Y-31480D01*
X62863Y-31483D01*
X62863Y-31483D01*
X62860Y-31484D01*
X62854Y-31485D01*
X62845Y-31487D01*
X62834Y-31489D01*
X62832Y-31490D01*
X62822Y-31492D01*
X62813Y-31493D01*
X62807Y-31494D01*
X62805Y-31495D01*
X62804Y-31497D01*
X62804Y-31502D01*
X62804Y-31509D01*
X62804Y-31519D01*
X62804Y-31528D01*
X62804Y-31538D01*
X62804Y-31546D01*
X62805Y-31552D01*
X62805Y-31554D01*
X62805Y-31554D01*
X62808Y-31555D01*
X62815Y-31557D01*
X62824Y-31558D01*
X62835Y-31561D01*
X62837Y-31561D01*
X62847Y-31563D01*
X62856Y-31565D01*
X62862Y-31566D01*
X62864Y-31567D01*
X62864Y-31567D01*
X62866Y-31572D01*
X62869Y-31579D01*
X62873Y-31587D01*
X62881Y-31607D01*
X62864Y-31632D01*
X62862Y-31634D01*
X62856Y-31643D01*
X62851Y-31650D01*
X62848Y-31655D01*
X62847Y-31658D01*
X62847Y-31658D01*
X62849Y-31660D01*
X62854Y-31665D01*
X62860Y-31672D01*
X62868Y-31679D01*
X62874Y-31685D01*
X62881Y-31692D01*
X62885Y-31696D01*
X62888Y-31699D01*
X62890Y-31699D01*
X62891Y-31699D01*
X62894Y-31698D01*
X62899Y-31694D01*
X62907Y-31689D01*
X62915Y-31683D01*
X62923Y-31678D01*
X62931Y-31673D01*
X62937Y-31669D01*
X62940Y-31668D01*
X62941Y-31668D01*
X62946Y-31670D01*
X62953Y-31673D01*
X62962Y-31677D01*
X62981Y-31685D01*
X62984Y-31698D01*
X62985Y-31706D01*
X62987Y-31717D01*
X62989Y-31727D01*
X62992Y-31743D01*
X63051Y-31744D01*
X63052Y-31741D01*
X63052Y-31739D01*
X63054Y-31733D01*
X63055Y-31724D01*
X63057Y-31714D01*
X63059Y-31706D01*
X63061Y-31697D01*
X63062Y-31691D01*
X63062Y-31688D01*
X63063Y-31687D01*
X63067Y-31685D01*
X63074Y-31682D01*
X63082Y-31679D01*
X63090Y-31675D01*
X63098Y-31672D01*
X63104Y-31670D01*
X63107Y-31669D01*
X63109Y-31670D01*
X63114Y-31674D01*
X63122Y-31678D01*
X63130Y-31684D01*
X63139Y-31690D01*
X63146Y-31695D01*
X63151Y-31698D01*
X63154Y-31700D01*
X63156Y-31699D01*
X63160Y-31696D01*
X63166Y-31689D01*
X63176Y-31680D01*
X63177Y-31678D01*
X63185Y-31670D01*
X63191Y-31664D01*
X63195Y-31659D01*
X63196Y-31657D01*
X63196Y-31657D01*
G37*
G36*
X60146Y-35426D02*
X60145Y-35422D01*
X60144Y-35417D01*
X60143Y-35415D01*
X60140Y-35411D01*
X60136Y-35407D01*
X60132Y-35405D01*
X60128Y-35403D01*
X60123Y-35403D01*
X60118Y-35403D01*
X60113Y-35404D01*
X60109Y-35406D01*
X60107Y-35407D01*
X60104Y-35410D01*
X60102Y-35412D01*
X60101Y-35414D01*
X60100Y-35415D01*
X60098Y-35419D01*
X60097Y-35423D01*
X60097Y-35428D01*
X60097Y-35430D01*
X60098Y-35432D01*
X60098Y-35435D01*
X60099Y-35437D01*
X60101Y-35440D01*
X60104Y-35444D01*
X60108Y-35447D01*
X60112Y-35450D01*
X60115Y-35450D01*
X60117Y-35451D01*
X60119Y-35451D01*
X60119Y-35451D01*
X60119Y-35451D01*
X60118Y-35452D01*
X60118Y-35452D01*
X60115Y-35452D01*
X60112Y-35454D01*
X60109Y-35455D01*
X60105Y-35458D01*
X60102Y-35462D01*
X60099Y-35466D01*
X60098Y-35471D01*
X60097Y-35476D01*
X60097Y-35477D01*
X60098Y-35481D01*
X60099Y-35485D01*
X60099Y-35485D01*
X60101Y-35490D01*
X60104Y-35493D01*
X60108Y-35496D01*
X60112Y-35499D01*
X60116Y-35500D01*
X60117Y-35500D01*
X60118Y-35500D01*
X60118Y-35500D01*
X60118Y-35500D01*
X60118Y-35500D01*
X60116Y-35500D01*
X60116Y-35500D01*
X60112Y-35502D01*
X60108Y-35504D01*
X60104Y-35507D01*
X60101Y-35510D01*
X60099Y-35514D01*
X60098Y-35519D01*
X60097Y-35524D01*
X60097Y-35528D01*
X60099Y-35533D01*
X60101Y-35537D01*
X60104Y-35541D01*
X60108Y-35544D01*
X60108Y-35545D01*
X60110Y-35546D01*
X60112Y-35547D01*
X60113Y-35547D01*
X60115Y-35548D01*
X60117Y-35548D01*
X60119Y-35548D01*
X60119Y-35548D01*
X60119Y-35549D01*
X60118Y-35549D01*
X60115Y-35549D01*
X60112Y-35550D01*
X60109Y-35552D01*
X60105Y-35555D01*
X60102Y-35559D01*
X60099Y-35563D01*
X60098Y-35568D01*
X60097Y-35573D01*
X60097Y-35577D01*
X60099Y-35582D01*
X60101Y-35587D01*
X60105Y-35591D01*
X60107Y-35592D01*
X60109Y-35594D01*
X60112Y-35596D01*
X60115Y-35597D01*
X60120Y-35597D01*
X60125Y-35597D01*
X60129Y-35596D01*
X60134Y-35594D01*
X60137Y-35592D01*
X60141Y-35588D01*
X60143Y-35584D01*
X60145Y-35580D01*
X60146Y-35575D01*
X60146Y-35574D01*
X60146Y-35569D01*
X60145Y-35565D01*
X60142Y-35560D01*
X60141Y-35559D01*
X60139Y-35555D01*
X60135Y-35553D01*
X60131Y-35551D01*
X60130Y-35550D01*
X60128Y-35549D01*
X60126Y-35549D01*
X60124Y-35549D01*
X60123Y-35549D01*
X60124Y-35548D01*
X60125Y-35548D01*
X60127Y-35548D01*
X60130Y-35547D01*
X60132Y-35546D01*
X60134Y-35545D01*
X60138Y-35542D01*
X60141Y-35538D01*
X60144Y-35534D01*
X60146Y-35529D01*
X60146Y-35528D01*
X60146Y-35525D01*
X60146Y-35522D01*
X60145Y-35518D01*
X60144Y-35515D01*
X60142Y-35510D01*
X60139Y-35506D01*
X60138Y-35506D01*
X60135Y-35503D01*
X60131Y-35501D01*
X60127Y-35500D01*
X60126Y-35500D01*
X60125Y-35500D01*
X60125Y-35500D01*
X60125Y-35500D01*
X60126Y-35500D01*
X60126Y-35500D01*
X60129Y-35499D01*
X60132Y-35498D01*
X60134Y-35497D01*
X60137Y-35495D01*
X60141Y-35491D01*
X60144Y-35487D01*
X60145Y-35482D01*
X60146Y-35481D01*
X60146Y-35478D01*
X60146Y-35474D01*
X60146Y-35471D01*
X60145Y-35468D01*
X60143Y-35464D01*
X60140Y-35460D01*
X60136Y-35456D01*
X60132Y-35454D01*
X60130Y-35453D01*
X60128Y-35452D01*
X60126Y-35452D01*
X60124Y-35452D01*
X60124Y-35452D01*
X60124Y-35452D01*
X60125Y-35451D01*
X60125Y-35451D01*
X60128Y-35451D01*
X60131Y-35449D01*
X60134Y-35448D01*
X60135Y-35447D01*
X60139Y-35444D01*
X60142Y-35440D01*
X60144Y-35436D01*
X60146Y-35431D01*
X60146Y-35426D01*
X60146Y-35426D01*
G37*
G36*
X60097Y-35624D02*
X60097Y-35621D01*
X60097Y-35618D01*
X60096Y-35614D01*
X60094Y-35610D01*
X60091Y-35606D01*
X60087Y-35602D01*
X60083Y-35600D01*
X60078Y-35598D01*
X60073Y-35598D01*
X60068Y-35598D01*
X60064Y-35599D01*
X60059Y-35601D01*
X60055Y-35604D01*
X60052Y-35608D01*
X60051Y-35610D01*
X60049Y-35614D01*
X60048Y-35619D01*
X60048Y-35624D01*
X60049Y-35629D01*
X60051Y-35633D01*
X60054Y-35638D01*
X60057Y-35641D01*
X60062Y-35644D01*
X60067Y-35646D01*
X60069Y-35646D01*
X60072Y-35646D01*
X60075Y-35646D01*
X60078Y-35646D01*
X60079Y-35646D01*
X60084Y-35644D01*
X60088Y-35641D01*
X60092Y-35637D01*
X60095Y-35633D01*
X60095Y-35631D01*
X60096Y-35628D01*
X60097Y-35625D01*
X60097Y-35624D01*
X60097Y-35624D01*
G37*
G36*
X60097Y-35377D02*
X60096Y-35372D01*
X60095Y-35368D01*
X60092Y-35363D01*
X60091Y-35362D01*
X60088Y-35359D01*
X60083Y-35356D01*
X60079Y-35354D01*
X60076Y-35354D01*
X60073Y-35354D01*
X60070Y-35354D01*
X60067Y-35354D01*
X60066Y-35354D01*
X60061Y-35356D01*
X60057Y-35359D01*
X60053Y-35363D01*
X60051Y-35367D01*
X60049Y-35372D01*
X60048Y-35377D01*
X60048Y-35379D01*
X60049Y-35383D01*
X60050Y-35388D01*
X60053Y-35392D01*
X60056Y-35396D01*
X60059Y-35399D01*
X60064Y-35401D01*
X60069Y-35402D01*
X60074Y-35402D01*
X60077Y-35402D01*
X60079Y-35402D01*
X60082Y-35401D01*
X60086Y-35399D01*
X60090Y-35395D01*
X60093Y-35392D01*
X60095Y-35387D01*
X60097Y-35382D01*
X60097Y-35377D01*
X60097Y-35377D01*
G37*
G36*
X60048Y-35672D02*
X60048Y-35669D01*
X60048Y-35666D01*
X60046Y-35662D01*
X60044Y-35658D01*
X60041Y-35654D01*
X60038Y-35651D01*
X60034Y-35649D01*
X60029Y-35647D01*
X60027Y-35647D01*
X60024Y-35647D01*
X60021Y-35647D01*
X60018Y-35647D01*
X60017Y-35647D01*
X60012Y-35649D01*
X60008Y-35652D01*
X60004Y-35656D01*
X60002Y-35660D01*
X60001Y-35662D01*
X60000Y-35665D01*
X59999Y-35668D01*
X59999Y-35672D01*
X59999Y-35674D01*
X60000Y-35677D01*
X60000Y-35679D01*
X60002Y-35682D01*
X60002Y-35684D01*
X60005Y-35688D01*
X60009Y-35691D01*
X60014Y-35694D01*
X60019Y-35695D01*
X60020Y-35695D01*
X60023Y-35695D01*
X60026Y-35695D01*
X60028Y-35695D01*
X60030Y-35695D01*
X60035Y-35693D01*
X60039Y-35690D01*
X60043Y-35686D01*
X60045Y-35682D01*
X60047Y-35677D01*
X60048Y-35676D01*
X60048Y-35672D01*
X60048Y-35672D01*
G37*
G36*
X60048Y-35477D02*
X60048Y-35472D01*
X60046Y-35467D01*
X60045Y-35464D01*
X60042Y-35460D01*
X60039Y-35457D01*
X60034Y-35454D01*
X60029Y-35452D01*
X60028Y-35452D01*
X60024Y-35451D01*
X60021Y-35452D01*
X60016Y-35453D01*
X60012Y-35455D01*
X60008Y-35457D01*
X60004Y-35461D01*
X60001Y-35465D01*
X60000Y-35470D01*
X59999Y-35474D01*
X59999Y-35472D01*
X59999Y-35472D01*
X59998Y-35468D01*
X59996Y-35464D01*
X59994Y-35461D01*
X59993Y-35460D01*
X59990Y-35457D01*
X59986Y-35454D01*
X59981Y-35452D01*
X59976Y-35452D01*
X59972Y-35452D01*
X59968Y-35453D01*
X59963Y-35455D01*
X59963Y-35455D01*
X59959Y-35458D01*
X59956Y-35462D01*
X59953Y-35466D01*
X59952Y-35470D01*
X59951Y-35475D01*
X59951Y-35480D01*
X59952Y-35484D01*
X59955Y-35489D01*
X59958Y-35493D01*
X59960Y-35495D01*
X59964Y-35497D01*
X59967Y-35499D01*
X59971Y-35500D01*
X59972Y-35500D01*
X59972Y-35500D01*
X59972Y-35500D01*
X59971Y-35500D01*
X59968Y-35501D01*
X59964Y-35502D01*
X59961Y-35504D01*
X59959Y-35505D01*
X59956Y-35509D01*
X59953Y-35513D01*
X59952Y-35518D01*
X59951Y-35523D01*
X59951Y-35528D01*
X59952Y-35531D01*
X59954Y-35536D01*
X59957Y-35540D01*
X59961Y-35543D01*
X59965Y-35546D01*
X59970Y-35548D01*
X59972Y-35548D01*
X59976Y-35548D01*
X59981Y-35548D01*
X59986Y-35546D01*
X59990Y-35543D01*
X59993Y-35540D01*
X59996Y-35535D01*
X59997Y-35533D01*
X59998Y-35531D01*
X59999Y-35529D01*
X59999Y-35527D01*
X59999Y-35527D01*
X59999Y-35527D01*
X59999Y-35528D01*
X60000Y-35531D01*
X60001Y-35534D01*
X60003Y-35537D01*
X60004Y-35538D01*
X60006Y-35542D01*
X60010Y-35544D01*
X60014Y-35547D01*
X60018Y-35548D01*
X60022Y-35548D01*
X60026Y-35548D01*
X60027Y-35548D01*
X60032Y-35547D01*
X60037Y-35545D01*
X60041Y-35541D01*
X60043Y-35539D01*
X60046Y-35534D01*
X60048Y-35529D01*
X60048Y-35527D01*
X60048Y-35525D01*
X60048Y-35522D01*
X60048Y-35519D01*
X60047Y-35517D01*
X60047Y-35516D01*
X60044Y-35511D01*
X60041Y-35507D01*
X60037Y-35504D01*
X60035Y-35502D01*
X60032Y-35501D01*
X60029Y-35500D01*
X60028Y-35500D01*
X60027Y-35500D01*
X60027Y-35500D01*
X60027Y-35500D01*
X60020Y-35500D01*
X60020Y-35500D01*
X60020Y-35500D01*
X60018Y-35500D01*
X60018Y-35500D01*
X60014Y-35502D01*
X60010Y-35504D01*
X60006Y-35507D01*
X60003Y-35511D01*
X60001Y-35515D01*
X60001Y-35515D01*
X60000Y-35517D01*
X59999Y-35519D01*
X59999Y-35522D01*
X59999Y-35519D01*
X59998Y-35517D01*
X59996Y-35512D01*
X59993Y-35508D01*
X59990Y-35505D01*
X59986Y-35502D01*
X59984Y-35501D01*
X59981Y-35500D01*
X59979Y-35500D01*
X59978Y-35500D01*
X59978Y-35500D01*
X59978Y-35500D01*
X59979Y-35500D01*
X59981Y-35500D01*
X59983Y-35499D01*
X59986Y-35498D01*
X59988Y-35496D01*
X59992Y-35493D01*
X59995Y-35489D01*
X59997Y-35485D01*
X59999Y-35480D01*
X59999Y-35478D01*
X59999Y-35481D01*
X59999Y-35481D01*
X60000Y-35483D01*
X60001Y-35485D01*
X60001Y-35486D01*
X60003Y-35490D01*
X60006Y-35493D01*
X60010Y-35496D01*
X60014Y-35499D01*
X60018Y-35500D01*
X60019Y-35500D01*
X60020Y-35500D01*
X60020Y-35500D01*
X60027Y-35500D01*
X60027Y-35500D01*
X60027Y-35500D01*
X60029Y-35500D01*
X60032Y-35499D01*
X60036Y-35497D01*
X60040Y-35494D01*
X60043Y-35490D01*
X60046Y-35486D01*
X60046Y-35486D01*
X60047Y-35482D01*
X60048Y-35477D01*
X60048Y-35477D01*
G37*
G36*
X60048Y-35331D02*
X60048Y-35327D01*
X60047Y-35323D01*
X60047Y-35321D01*
X60044Y-35316D01*
X60041Y-35312D01*
X60038Y-35309D01*
X60033Y-35307D01*
X60029Y-35305D01*
X60024Y-35304D01*
X60021Y-35305D01*
X60016Y-35305D01*
X60012Y-35307D01*
X60007Y-35311D01*
X60006Y-35311D01*
X60003Y-35315D01*
X60001Y-35319D01*
X60000Y-35323D01*
X60000Y-35323D01*
X59999Y-35327D01*
X59999Y-35331D01*
X60000Y-35335D01*
X60000Y-35336D01*
X60002Y-35341D01*
X60005Y-35345D01*
X60008Y-35348D01*
X60012Y-35351D01*
X60017Y-35353D01*
X60021Y-35353D01*
X60026Y-35353D01*
X60031Y-35352D01*
X60035Y-35351D01*
X60039Y-35348D01*
X60043Y-35344D01*
X60045Y-35340D01*
X60047Y-35335D01*
X60047Y-35335D01*
X60048Y-35331D01*
X60048Y-35331D01*
G37*
G36*
X59902Y-35572D02*
X59901Y-35567D01*
X59900Y-35563D01*
X59899Y-35560D01*
X59897Y-35558D01*
X59895Y-35556D01*
X59892Y-35553D01*
X59888Y-35551D01*
X59883Y-35549D01*
X59882Y-35549D01*
X59879Y-35549D01*
X59875Y-35549D01*
X59872Y-35549D01*
X59868Y-35550D01*
X59864Y-35553D01*
X59860Y-35556D01*
X59860Y-35556D01*
X59858Y-35558D01*
X59856Y-35561D01*
X59855Y-35563D01*
X59855Y-35564D01*
X59854Y-35566D01*
X59853Y-35568D01*
X59853Y-35570D01*
X59853Y-35571D01*
X59853Y-35570D01*
X59853Y-35568D01*
X59852Y-35567D01*
X59852Y-35565D01*
X59850Y-35561D01*
X59848Y-35558D01*
X59845Y-35555D01*
X59845Y-35554D01*
X59840Y-35552D01*
X59836Y-35550D01*
X59831Y-35549D01*
X59826Y-35549D01*
X59825Y-35549D01*
X59820Y-35550D01*
X59815Y-35552D01*
X59811Y-35556D01*
X59809Y-35559D01*
X59806Y-35563D01*
X59804Y-35568D01*
X59804Y-35569D01*
X59804Y-35572D01*
X59804Y-35576D01*
X59805Y-35579D01*
X59805Y-35581D01*
X59808Y-35586D01*
X59811Y-35590D01*
X59814Y-35593D01*
X59819Y-35596D01*
X59823Y-35597D01*
X59824Y-35597D01*
X59825Y-35597D01*
X59825Y-35598D01*
X59825Y-35598D01*
X59824Y-35598D01*
X59822Y-35598D01*
X59820Y-35599D01*
X59818Y-35600D01*
X59816Y-35601D01*
X59812Y-35604D01*
X59809Y-35608D01*
X59806Y-35612D01*
X59805Y-35617D01*
X59804Y-35622D01*
X59804Y-35626D01*
X59805Y-35631D01*
X59808Y-35635D01*
X59809Y-35637D01*
X59813Y-35641D01*
X59817Y-35644D01*
X59822Y-35646D01*
X59826Y-35646D01*
X59831Y-35646D01*
X59836Y-35645D01*
X59841Y-35643D01*
X59845Y-35640D01*
X59848Y-35637D01*
X59851Y-35632D01*
X59852Y-35627D01*
X59853Y-35624D01*
X59853Y-35626D01*
X59853Y-35627D01*
X59855Y-35631D01*
X59857Y-35635D01*
X59859Y-35638D01*
X59862Y-35641D01*
X59865Y-35643D01*
X59868Y-35645D01*
X59871Y-35646D01*
X59874Y-35646D01*
X59877Y-35646D01*
X59880Y-35646D01*
X59883Y-35646D01*
X59886Y-35645D01*
X59890Y-35643D01*
X59894Y-35640D01*
X59898Y-35636D01*
X59900Y-35631D01*
X59902Y-35626D01*
X59902Y-35625D01*
X59902Y-35622D01*
X59902Y-35619D01*
X59901Y-35616D01*
X59901Y-35614D01*
X59898Y-35609D01*
X59895Y-35605D01*
X59892Y-35602D01*
X59887Y-35600D01*
X59882Y-35598D01*
X59882Y-35598D01*
X59881Y-35598D01*
X59881Y-35597D01*
X59874Y-35597D01*
X59874Y-35598D01*
X59873Y-35598D01*
X59873Y-35598D01*
X59870Y-35599D01*
X59866Y-35600D01*
X59863Y-35602D01*
X59861Y-35604D01*
X59858Y-35608D01*
X59855Y-35612D01*
X59853Y-35617D01*
X59853Y-35619D01*
X59853Y-35618D01*
X59852Y-35616D01*
X59852Y-35615D01*
X59852Y-35614D01*
X59849Y-35609D01*
X59846Y-35605D01*
X59843Y-35602D01*
X59838Y-35600D01*
X59834Y-35598D01*
X59832Y-35598D01*
X59832Y-35598D01*
X59832Y-35597D01*
X59834Y-35597D01*
X59834Y-35597D01*
X59836Y-35596D01*
X59839Y-35595D01*
X59842Y-35593D01*
X59844Y-35592D01*
X59846Y-35590D01*
X59848Y-35588D01*
X59850Y-35585D01*
X59850Y-35585D01*
X59852Y-35581D01*
X59853Y-35577D01*
X59853Y-35576D01*
X59853Y-35578D01*
X59855Y-35582D01*
X59857Y-35586D01*
X59860Y-35590D01*
X59864Y-35593D01*
X59865Y-35594D01*
X59867Y-35595D01*
X59870Y-35596D01*
X59872Y-35597D01*
X59874Y-35597D01*
X59874Y-35597D01*
X59874Y-35597D01*
X59881Y-35597D01*
X59881Y-35597D01*
X59882Y-35597D01*
X59883Y-35597D01*
X59885Y-35596D01*
X59888Y-35595D01*
X59892Y-35593D01*
X59895Y-35590D01*
X59898Y-35586D01*
X59900Y-35582D01*
X59902Y-35577D01*
X59902Y-35572D01*
X59902Y-35572D01*
G37*
G36*
X59902Y-35426D02*
X59901Y-35421D01*
X59900Y-35416D01*
X59897Y-35412D01*
X59894Y-35409D01*
X59890Y-35406D01*
X59885Y-35404D01*
X59883Y-35403D01*
X59882Y-35403D01*
X59882Y-35403D01*
X59881Y-35403D01*
X59881Y-35403D01*
X59874Y-35403D01*
X59873Y-35403D01*
X59872Y-35403D01*
X59869Y-35404D01*
X59864Y-35406D01*
X59861Y-35409D01*
X59857Y-35413D01*
X59855Y-35417D01*
X59853Y-35422D01*
X59853Y-35424D01*
X59853Y-35423D01*
X59853Y-35423D01*
X59851Y-35419D01*
X59850Y-35415D01*
X59849Y-35413D01*
X59847Y-35411D01*
X59844Y-35408D01*
X59842Y-35407D01*
X59840Y-35405D01*
X59837Y-35404D01*
X59834Y-35403D01*
X59832Y-35403D01*
X59832Y-35403D01*
X59832Y-35402D01*
X59834Y-35402D01*
X59837Y-35401D01*
X59841Y-35399D01*
X59845Y-35396D01*
X59849Y-35392D01*
X59851Y-35387D01*
X59853Y-35382D01*
X59853Y-35381D01*
X59853Y-35383D01*
X59854Y-35385D01*
X59856Y-35390D01*
X59859Y-35394D01*
X59863Y-35398D01*
X59864Y-35399D01*
X59866Y-35400D01*
X59869Y-35401D01*
X59871Y-35402D01*
X59873Y-35402D01*
X59873Y-35402D01*
X59874Y-35402D01*
X59874Y-35403D01*
X59881Y-35403D01*
X59881Y-35402D01*
X59882Y-35402D01*
X59884Y-35402D01*
X59888Y-35400D01*
X59891Y-35398D01*
X59893Y-35397D01*
X59897Y-35393D01*
X59899Y-35389D01*
X59901Y-35384D01*
X59902Y-35382D01*
X59902Y-35378D01*
X59902Y-35375D01*
X59901Y-35372D01*
X59901Y-35372D01*
X59899Y-35367D01*
X59896Y-35362D01*
X59893Y-35359D01*
X59888Y-35356D01*
X59883Y-35354D01*
X59881Y-35354D01*
X59878Y-35354D01*
X59874Y-35354D01*
X59871Y-35354D01*
X59869Y-35355D01*
X59865Y-35357D01*
X59862Y-35359D01*
X59860Y-35361D01*
X59857Y-35364D01*
X59856Y-35367D01*
X59855Y-35368D01*
X59854Y-35371D01*
X59853Y-35373D01*
X59853Y-35375D01*
X59853Y-35375D01*
X59853Y-35374D01*
X59852Y-35373D01*
X59852Y-35370D01*
X59850Y-35367D01*
X59849Y-35364D01*
X59848Y-35364D01*
X59845Y-35360D01*
X59842Y-35358D01*
X59838Y-35355D01*
X59837Y-35355D01*
X59832Y-35354D01*
X59827Y-35354D01*
X59822Y-35354D01*
X59821Y-35355D01*
X59816Y-35357D01*
X59812Y-35360D01*
X59809Y-35364D01*
X59806Y-35368D01*
X59804Y-35373D01*
X59804Y-35373D01*
X59804Y-35377D01*
X59804Y-35380D01*
X59805Y-35384D01*
X59805Y-35384D01*
X59807Y-35389D01*
X59810Y-35394D01*
X59813Y-35397D01*
X59818Y-35400D01*
X59819Y-35401D01*
X59821Y-35401D01*
X59823Y-35402D01*
X59825Y-35402D01*
X59825Y-35402D01*
X59825Y-35402D01*
X59825Y-35403D01*
X59823Y-35403D01*
X59820Y-35404D01*
X59816Y-35406D01*
X59812Y-35409D01*
X59809Y-35413D01*
X59806Y-35417D01*
X59806Y-35417D01*
X59805Y-35421D01*
X59804Y-35426D01*
X59804Y-35431D01*
X59806Y-35436D01*
X59807Y-35439D01*
X59810Y-35443D01*
X59813Y-35446D01*
X59818Y-35449D01*
X59823Y-35451D01*
X59824Y-35451D01*
X59828Y-35452D01*
X59831Y-35451D01*
X59836Y-35450D01*
X59841Y-35448D01*
X59845Y-35445D01*
X59848Y-35442D01*
X59851Y-35437D01*
X59852Y-35432D01*
X59853Y-35431D01*
X59853Y-35430D01*
X59853Y-35430D01*
X59853Y-35432D01*
X59854Y-35435D01*
X59855Y-35438D01*
X59857Y-35440D01*
X59859Y-35443D01*
X59863Y-35447D01*
X59867Y-35449D01*
X59868Y-35450D01*
X59873Y-35451D01*
X59878Y-35451D01*
X59883Y-35451D01*
X59888Y-35449D01*
X59890Y-35448D01*
X59892Y-35447D01*
X59894Y-35445D01*
X59895Y-35444D01*
X59898Y-35440D01*
X59900Y-35436D01*
X59902Y-35431D01*
X59902Y-35431D01*
X59902Y-35426D01*
X59902Y-35426D01*
G37*
G54D12*
X60500Y-35000D03*
G54D13*
X61500Y-35000D03*
X62500Y-35000D03*
X62500Y-32000D03*
X61500Y-32000D03*
X60500Y-32000D03*
G54D14*
X62300Y-33900D03*
X62700Y-33900D03*
X61700Y-33900D03*
X61300Y-33900D03*
X60300Y-33900D03*
X60700Y-33900D03*
G54D15*
X60500Y-34300D03*
X61500Y-34300D03*
X62500Y-34300D03*
G54D14*
X62300Y-33100D03*
X62700Y-33100D03*
X61700Y-33100D03*
X61300Y-33100D03*
G54D15*
X62500Y-32700D03*
X61500Y-32700D03*
X60500Y-32700D03*
G54D14*
X60300Y-33100D03*
X60700Y-33100D03*
G54D16*
X61100Y-35500D03*
X61000Y-31500D03*
X62000Y-31500D03*
X62000Y-35500D03*
G54D17*
X61000Y-33900D02*
X61000Y-35200D01*
X61000Y-35200D02*
X61100Y-35300D01*
X61100Y-35500D02*
X61100Y-35300D01*
X61000Y-33900D02*
X60700Y-33900D01*
X62000Y-31500D02*
X62000Y-33100D01*
X62000Y-33100D02*
X62300Y-33100D01*
X60300Y-33100D02*
X59900Y-33100D01*
X61000Y-33100D02*
X61300Y-33100D01*
X61000Y-31500D02*
X61000Y-33100D01*
X59900Y-31500D02*
X61000Y-31500D01*
X59900Y-33100D02*
X59900Y-31500D01*
G54D18*
X60500Y-34300D02*
X60500Y-35000D01*
X62300Y-33100D02*
X62300Y-33900D01*
G54D17*
X63100Y-35500D02*
X62000Y-35500D01*
X62700Y-33900D02*
X63100Y-33900D01*
X63100Y-33900D02*
X63100Y-35500D01*
X61700Y-33900D02*
X62000Y-33900D01*
X62000Y-33900D02*
X62000Y-35500D01*
G54D18*
X60300Y-33100D02*
X60300Y-33900D01*
X62500Y-32700D02*
X62500Y-32000D01*
X62700Y-33100D02*
X62700Y-33500D01*
X60500Y-32700D02*
X60500Y-32000D01*
X61500Y-34300D02*
X61500Y-35000D01*
X62500Y-34300D02*
X62500Y-35000D01*
X61300Y-33100D02*
X61300Y-33900D01*
X60700Y-33500D02*
X60700Y-33900D01*
X60700Y-33100D02*
X60700Y-33500D01*
X61700Y-33500D02*
X61700Y-33900D01*
X61700Y-33100D02*
X61700Y-33500D01*
X62700Y-33500D02*
X62700Y-33900D01*
X61500Y-32700D02*
X61500Y-32000D01*
M02*
