G04 (created by PCBNEW (2013-01-21 BZR 3918)-testing) date Wed 23 Jan 2013 07:21:25 PM CET*
%MOIN*%
G04 Gerber Fmt 3.4, Leading zero omitted, Abs format*
%FSLAX34Y34*%
G01*
G70*
G90*
G04 APERTURE LIST*
%ADD10C,2.3622e-06*%
%ADD11R,0.0709X0.0709*%
%ADD12C,0.0709*%
%ADD13R,0.0295X0.0394*%
%ADD14R,0.0689X0.0295*%
%ADD15C,0.008*%
G04 APERTURE END LIST*
G54D10*
%LPC*%
G54D11*
X60500Y-35000D03*
G54D12*
X61500Y-35000D03*
X62500Y-35000D03*
X62500Y-32000D03*
X61500Y-32000D03*
X60500Y-32000D03*
G54D13*
X62300Y-33900D03*
X62700Y-33900D03*
X61700Y-33900D03*
X61300Y-33900D03*
X60300Y-33900D03*
X60700Y-33900D03*
G54D14*
X60500Y-34300D03*
X61500Y-34300D03*
X62500Y-34300D03*
G54D13*
X62300Y-33100D03*
X62700Y-33100D03*
X61700Y-33100D03*
X61300Y-33100D03*
G54D14*
X62500Y-32700D03*
X61500Y-32700D03*
X60500Y-32700D03*
G54D13*
X60300Y-33100D03*
X60700Y-33100D03*
G54D10*
G36*
X60875Y-33325D02*
X60875Y-32525D01*
X60125Y-32525D01*
X60125Y-33325D01*
X60875Y-33325D01*
X60875Y-33325D01*
G37*
G54D15*
X60875Y-33325D02*
X60875Y-32525D01*
X60125Y-32525D01*
X60125Y-33325D01*
X60875Y-33325D01*
G54D10*
G36*
X61875Y-33325D02*
X61875Y-32525D01*
X61125Y-32525D01*
X61125Y-33325D01*
X61875Y-33325D01*
X61875Y-33325D01*
G37*
G54D15*
X61875Y-33325D02*
X61875Y-32525D01*
X61125Y-32525D01*
X61125Y-33325D01*
X61875Y-33325D01*
G54D10*
G36*
X62875Y-33325D02*
X62875Y-32525D01*
X62125Y-32525D01*
X62125Y-33325D01*
X62875Y-33325D01*
X62875Y-33325D01*
G37*
G54D15*
X62875Y-33325D02*
X62875Y-32525D01*
X62125Y-32525D01*
X62125Y-33325D01*
X62875Y-33325D01*
G54D10*
G36*
X60875Y-34475D02*
X60875Y-33675D01*
X60125Y-33675D01*
X60125Y-34475D01*
X60875Y-34475D01*
X60875Y-34475D01*
G37*
G54D15*
X60875Y-34475D02*
X60875Y-33675D01*
X60125Y-33675D01*
X60125Y-34475D01*
X60875Y-34475D01*
G54D10*
G36*
X61875Y-34475D02*
X61875Y-33675D01*
X61125Y-33675D01*
X61125Y-34475D01*
X61875Y-34475D01*
X61875Y-34475D01*
G37*
G54D15*
X61875Y-34475D02*
X61875Y-33675D01*
X61125Y-33675D01*
X61125Y-34475D01*
X61875Y-34475D01*
G54D10*
G36*
X62875Y-34475D02*
X62875Y-33675D01*
X62125Y-33675D01*
X62125Y-34475D01*
X62875Y-34475D01*
X62875Y-34475D01*
G37*
G54D15*
X62875Y-34475D02*
X62875Y-33675D01*
X62125Y-33675D01*
X62125Y-34475D01*
X62875Y-34475D01*
M02*
