G04 (created by PCBNEW-RS274X (2012-jan-04)-stable) date Thu 02 Aug 2012 06:27:44 PM CEST*
G01*
G70*
G90*
%MOIN*%
G04 Gerber Fmt 3.4, Leading zero omitted, Abs format*
%FSLAX34Y34*%
G04 APERTURE LIST*
%ADD10C,0.006000*%
%ADD11R,0.065000X0.065000*%
%ADD12C,0.065000*%
%ADD13R,0.029500X0.039400*%
%ADD14R,0.068900X0.029500*%
%ADD15C,0.030000*%
%ADD16C,0.020000*%
%ADD17C,0.008000*%
G04 APERTURE END LIST*
G54D10*
G54D11*
X60500Y-35000D03*
G54D12*
X61500Y-35000D03*
X62500Y-35000D03*
X62500Y-32000D03*
X61500Y-32000D03*
X60500Y-32000D03*
G54D13*
X62300Y-33900D03*
X62700Y-33900D03*
X61700Y-33900D03*
X61300Y-33900D03*
X60300Y-33900D03*
X60700Y-33900D03*
G54D14*
X60500Y-34300D03*
X61500Y-34300D03*
X62500Y-34300D03*
G54D13*
X62300Y-33100D03*
X62700Y-33100D03*
X61700Y-33100D03*
X61300Y-33100D03*
G54D14*
X62500Y-32700D03*
X61500Y-32700D03*
X60500Y-32700D03*
G54D13*
X60300Y-33100D03*
X60700Y-33100D03*
G54D15*
X61100Y-35500D03*
X61000Y-31500D03*
X62000Y-31500D03*
X62000Y-35500D03*
G54D16*
X60500Y-32700D02*
X60500Y-32000D01*
G54D17*
X59900Y-31500D02*
X61000Y-31500D01*
X59900Y-33100D02*
X59900Y-31500D01*
G54D16*
X60500Y-34300D02*
X60500Y-35000D01*
X62300Y-33100D02*
X62300Y-33900D01*
G54D17*
X63100Y-35500D02*
X62000Y-35500D01*
X62700Y-33900D02*
X63100Y-33900D01*
X63100Y-33900D02*
X63100Y-35500D01*
X61700Y-33900D02*
X62000Y-33900D01*
X62000Y-33900D02*
X62000Y-35500D01*
G54D16*
X60300Y-33100D02*
X60300Y-33900D01*
X62500Y-32700D02*
X62500Y-32000D01*
X62700Y-33100D02*
X62700Y-33500D01*
G54D17*
X61000Y-31500D02*
X61000Y-33100D01*
G54D16*
X61500Y-34300D02*
X61500Y-35000D01*
X62500Y-34300D02*
X62500Y-35000D01*
X61300Y-33100D02*
X61300Y-33900D01*
X60700Y-33500D02*
X60700Y-33900D01*
X60700Y-33100D02*
X60700Y-33500D01*
X61700Y-33500D02*
X61700Y-33900D01*
X61700Y-33100D02*
X61700Y-33500D01*
X62700Y-33500D02*
X62700Y-33900D01*
X61500Y-32700D02*
X61500Y-32000D01*
G54D17*
X61000Y-35200D02*
X61100Y-35300D01*
X61100Y-35500D02*
X61100Y-35300D01*
X61000Y-33900D02*
X60700Y-33900D01*
X61000Y-33900D02*
X61000Y-35200D01*
X62000Y-31500D02*
X62000Y-33100D01*
X62000Y-33100D02*
X62300Y-33100D01*
X60300Y-33100D02*
X59900Y-33100D01*
X61000Y-33100D02*
X61300Y-33100D01*
M02*
